%TF.GenerationSoftware,KiCad,Pcbnew,(5.1.7)-1*%
%TF.CreationDate,2021-09-18T16:18:18+01:00*%
%TF.ProjectId,RcCtlHw,52634374-6c48-4772-9e6b-696361645f70,rev?*%
%TF.SameCoordinates,Original*%
%TF.FileFunction,Copper,L1,Top*%
%TF.FilePolarity,Positive*%
%FSLAX46Y46*%
G04 Gerber Fmt 4.6, Leading zero omitted, Abs format (unit mm)*
G04 Created by KiCad (PCBNEW (5.1.7)-1) date 2021-09-18 16:18:18*
%MOMM*%
%LPD*%
G01*
G04 APERTURE LIST*
%TA.AperFunction,NonConductor*%
%ADD10C,0.300000*%
%TD*%
%TA.AperFunction,Profile*%
%ADD11C,0.050000*%
%TD*%
%TA.AperFunction,SMDPad,CuDef*%
%ADD12R,2.000000X0.900000*%
%TD*%
%TA.AperFunction,ComponentPad*%
%ADD13O,1.700000X1.700000*%
%TD*%
%TA.AperFunction,ComponentPad*%
%ADD14R,1.700000X1.700000*%
%TD*%
%TA.AperFunction,ComponentPad*%
%ADD15O,1.600000X1.200000*%
%TD*%
%TA.AperFunction,ComponentPad*%
%ADD16O,1.200000X1.600000*%
%TD*%
%TA.AperFunction,ComponentPad*%
%ADD17C,2.000000*%
%TD*%
%TA.AperFunction,ComponentPad*%
%ADD18O,1.800000X1.070000*%
%TD*%
%TA.AperFunction,ComponentPad*%
%ADD19R,1.800000X1.070000*%
%TD*%
%TA.AperFunction,ComponentPad*%
%ADD20O,2.200000X3.500000*%
%TD*%
%TA.AperFunction,ComponentPad*%
%ADD21O,2.500000X2.000000*%
%TD*%
%TA.AperFunction,SMDPad,CuDef*%
%ADD22R,1.200000X2.200000*%
%TD*%
%TA.AperFunction,SMDPad,CuDef*%
%ADD23R,5.800000X6.400000*%
%TD*%
%TA.AperFunction,ViaPad*%
%ADD24C,1.100000*%
%TD*%
%TA.AperFunction,Conductor*%
%ADD25C,0.250000*%
%TD*%
%TA.AperFunction,Conductor*%
%ADD26C,1.000000*%
%TD*%
G04 APERTURE END LIST*
D10*
X134892171Y-112976457D02*
X134177885Y-113476457D01*
X134892171Y-113833600D02*
X133392171Y-113833600D01*
X133392171Y-113262171D01*
X133463600Y-113119314D01*
X133535028Y-113047885D01*
X133677885Y-112976457D01*
X133892171Y-112976457D01*
X134035028Y-113047885D01*
X134106457Y-113119314D01*
X134177885Y-113262171D01*
X134177885Y-113833600D01*
X134749314Y-111476457D02*
X134820742Y-111547885D01*
X134892171Y-111762171D01*
X134892171Y-111905028D01*
X134820742Y-112119314D01*
X134677885Y-112262171D01*
X134535028Y-112333600D01*
X134249314Y-112405028D01*
X134035028Y-112405028D01*
X133749314Y-112333600D01*
X133606457Y-112262171D01*
X133463600Y-112119314D01*
X133392171Y-111905028D01*
X133392171Y-111762171D01*
X133463600Y-111547885D01*
X133535028Y-111476457D01*
X134749314Y-108833600D02*
X134820742Y-108905028D01*
X134892171Y-109119314D01*
X134892171Y-109262171D01*
X134820742Y-109476457D01*
X134677885Y-109619314D01*
X134535028Y-109690742D01*
X134249314Y-109762171D01*
X134035028Y-109762171D01*
X133749314Y-109690742D01*
X133606457Y-109619314D01*
X133463600Y-109476457D01*
X133392171Y-109262171D01*
X133392171Y-109119314D01*
X133463600Y-108905028D01*
X133535028Y-108833600D01*
X133892171Y-108405028D02*
X133892171Y-107833600D01*
X133392171Y-108190742D02*
X134677885Y-108190742D01*
X134820742Y-108119314D01*
X134892171Y-107976457D01*
X134892171Y-107833600D01*
X134892171Y-107333600D02*
X133892171Y-107333600D01*
X134177885Y-107333600D02*
X134035028Y-107262171D01*
X133963600Y-107190742D01*
X133892171Y-107047885D01*
X133892171Y-106905028D01*
X134892171Y-106190742D02*
X134820742Y-106333600D01*
X134677885Y-106405028D01*
X133392171Y-106405028D01*
D11*
X114300000Y-84455000D02*
X140970000Y-84455000D01*
X140970000Y-84455000D02*
X140970000Y-84836000D01*
X114300000Y-84709000D02*
X114300000Y-84455000D01*
X140970000Y-126365000D02*
X140970000Y-119380000D01*
X114300000Y-126365000D02*
X140970000Y-126365000D01*
X114300000Y-119380000D02*
X114300000Y-126365000D01*
X114300000Y-119380000D02*
X114300000Y-84709000D01*
X140970000Y-84836000D02*
X140970000Y-119380000D01*
D12*
%TO.P,U2,16*%
%TO.N,/TFT_RST*%
X131305000Y-86092001D03*
%TO.P,U2,15*%
%TO.N,/RST*%
X131305000Y-87616001D03*
%TO.P,U2,14*%
%TO.N,/TX*%
X131305000Y-89140001D03*
%TO.P,U2,13*%
%TO.N,/RX*%
X131305000Y-90664001D03*
%TO.P,U2,12*%
%TO.N,/I2C_SDA*%
X131305000Y-92188001D03*
%TO.P,U2,11*%
%TO.N,/I2C_SCL*%
X131305000Y-93712001D03*
%TO.P,U2,10*%
%TO.N,/Flash*%
X131305000Y-95236001D03*
%TO.P,U2,9*%
%TO.N,/TFT_RS*%
X131305000Y-96760001D03*
%TO.P,U2,8*%
%TO.N,GND*%
X131305000Y-98284001D03*
%TO.P,U2,1*%
%TO.N,N/C*%
X118986000Y-89140001D03*
%TO.P,U2,2*%
%TO.N,Net-(R6-Pad2)*%
X118986000Y-90664001D03*
%TO.P,U2,3*%
%TO.N,/TFT_SCL*%
X118986000Y-92188001D03*
%TO.P,U2,4*%
%TO.N,N/C*%
X118986000Y-93712001D03*
%TO.P,U2,5*%
%TO.N,/TFT_SDA*%
X118986000Y-95236001D03*
%TO.P,U2,6*%
%TO.N,N/C*%
X118986000Y-96760001D03*
%TO.P,U2,7*%
%TO.N,+3V3*%
X118986000Y-98284001D03*
%TD*%
D13*
%TO.P,J2,6*%
%TO.N,GND*%
X138684000Y-99187000D03*
%TO.P,J2,5*%
%TO.N,/RX*%
X138684000Y-96647000D03*
%TO.P,J2,4*%
%TO.N,/TX*%
X138684000Y-94107000D03*
%TO.P,J2,3*%
%TO.N,/Flash*%
X138684000Y-91567000D03*
%TO.P,J2,2*%
%TO.N,/RST*%
X138684000Y-89027000D03*
D14*
%TO.P,J2,1*%
%TO.N,+3V3*%
X138684000Y-86487000D03*
%TD*%
D15*
%TO.P,U4,6*%
%TO.N,GND*%
X136761000Y-112776000D03*
%TO.P,U4,5*%
%TO.N,Net-(C8-Pad1)*%
X136761000Y-110236000D03*
%TO.P,U4,4*%
%TO.N,+3V3*%
X136761000Y-107696000D03*
D16*
%TO.P,U4,3*%
%TO.N,GND*%
X130301000Y-101236000D03*
%TO.P,U4,2*%
%TO.N,Net-(C7-Pad1)*%
X127761000Y-101236000D03*
%TO.P,U4,1*%
%TO.N,+3V3*%
X125221000Y-101236000D03*
D17*
%TO.P,U4,*%
%TO.N,*%
X134511000Y-115986000D03*
X134511000Y-104486000D03*
X121011000Y-104486000D03*
X121011000Y-115986000D03*
%TD*%
D18*
%TO.P,D1,4*%
%TO.N,N/C*%
X118364000Y-107442000D03*
%TO.P,D1,3*%
%TO.N,Net-(D1-Pad3)*%
X118364000Y-108712000D03*
%TO.P,D1,2*%
%TO.N,Net-(D1-Pad2)*%
X118364000Y-109982000D03*
D19*
%TO.P,D1,1*%
%TO.N,Net-(D1-Pad1)*%
X118364000Y-111252000D03*
%TD*%
%TO.P,R3,2*%
%TO.N,Net-(C1-Pad1)*%
%TA.AperFunction,SMDPad,CuDef*%
G36*
G01*
X119526000Y-113734002D02*
X119526000Y-112833998D01*
G75*
G02*
X119775998Y-112584000I249998J0D01*
G01*
X120301002Y-112584000D01*
G75*
G02*
X120551000Y-112833998I0J-249998D01*
G01*
X120551000Y-113734002D01*
G75*
G02*
X120301002Y-113984000I-249998J0D01*
G01*
X119775998Y-113984000D01*
G75*
G02*
X119526000Y-113734002I0J249998D01*
G01*
G37*
%TD.AperFunction*%
%TO.P,R3,1*%
%TO.N,Net-(D1-Pad2)*%
%TA.AperFunction,SMDPad,CuDef*%
G36*
G01*
X117701000Y-113734002D02*
X117701000Y-112833998D01*
G75*
G02*
X117950998Y-112584000I249998J0D01*
G01*
X118476002Y-112584000D01*
G75*
G02*
X118726000Y-112833998I0J-249998D01*
G01*
X118726000Y-113734002D01*
G75*
G02*
X118476002Y-113984000I-249998J0D01*
G01*
X117950998Y-113984000D01*
G75*
G02*
X117701000Y-113734002I0J249998D01*
G01*
G37*
%TD.AperFunction*%
%TD*%
D20*
%TO.P,J1,6*%
%TO.N,Net-(J1-Pad6)*%
X116518000Y-116977000D03*
D21*
X119618000Y-117777000D03*
D20*
X116518000Y-124577000D03*
D21*
X119618000Y-123777000D03*
%TD*%
%TO.P,C1,1*%
%TO.N,Net-(C1-Pad1)*%
%TA.AperFunction,SMDPad,CuDef*%
G36*
G01*
X131752000Y-103157000D02*
X131752000Y-104107000D01*
G75*
G02*
X131502000Y-104357000I-250000J0D01*
G01*
X131002000Y-104357000D01*
G75*
G02*
X130752000Y-104107000I0J250000D01*
G01*
X130752000Y-103157000D01*
G75*
G02*
X131002000Y-102907000I250000J0D01*
G01*
X131502000Y-102907000D01*
G75*
G02*
X131752000Y-103157000I0J-250000D01*
G01*
G37*
%TD.AperFunction*%
%TO.P,C1,2*%
%TO.N,GND*%
%TA.AperFunction,SMDPad,CuDef*%
G36*
G01*
X129852000Y-103157000D02*
X129852000Y-104107000D01*
G75*
G02*
X129602000Y-104357000I-250000J0D01*
G01*
X129102000Y-104357000D01*
G75*
G02*
X128852000Y-104107000I0J250000D01*
G01*
X128852000Y-103157000D01*
G75*
G02*
X129102000Y-102907000I250000J0D01*
G01*
X129602000Y-102907000D01*
G75*
G02*
X129852000Y-103157000I0J-250000D01*
G01*
G37*
%TD.AperFunction*%
%TD*%
%TO.P,C2,1*%
%TO.N,+BATT*%
%TA.AperFunction,SMDPad,CuDef*%
G36*
G01*
X123772000Y-104107000D02*
X123772000Y-103157000D01*
G75*
G02*
X124022000Y-102907000I250000J0D01*
G01*
X124522000Y-102907000D01*
G75*
G02*
X124772000Y-103157000I0J-250000D01*
G01*
X124772000Y-104107000D01*
G75*
G02*
X124522000Y-104357000I-250000J0D01*
G01*
X124022000Y-104357000D01*
G75*
G02*
X123772000Y-104107000I0J250000D01*
G01*
G37*
%TD.AperFunction*%
%TO.P,C2,2*%
%TO.N,GND*%
%TA.AperFunction,SMDPad,CuDef*%
G36*
G01*
X125672000Y-104107000D02*
X125672000Y-103157000D01*
G75*
G02*
X125922000Y-102907000I250000J0D01*
G01*
X126422000Y-102907000D01*
G75*
G02*
X126672000Y-103157000I0J-250000D01*
G01*
X126672000Y-104107000D01*
G75*
G02*
X126422000Y-104357000I-250000J0D01*
G01*
X125922000Y-104357000D01*
G75*
G02*
X125672000Y-104107000I0J250000D01*
G01*
G37*
%TD.AperFunction*%
%TD*%
%TO.P,R2,1*%
%TO.N,Net-(C1-Pad1)*%
%TA.AperFunction,SMDPad,CuDef*%
G36*
G01*
X130829000Y-110842999D02*
X130829000Y-113693001D01*
G75*
G02*
X130579001Y-113943000I-249999J0D01*
G01*
X129853999Y-113943000D01*
G75*
G02*
X129604000Y-113693001I0J249999D01*
G01*
X129604000Y-110842999D01*
G75*
G02*
X129853999Y-110593000I249999J0D01*
G01*
X130579001Y-110593000D01*
G75*
G02*
X130829000Y-110842999I0J-249999D01*
G01*
G37*
%TD.AperFunction*%
%TO.P,R2,2*%
%TO.N,Net-(J1-Pad1)*%
%TA.AperFunction,SMDPad,CuDef*%
G36*
G01*
X124904000Y-110842999D02*
X124904000Y-113693001D01*
G75*
G02*
X124654001Y-113943000I-249999J0D01*
G01*
X123928999Y-113943000D01*
G75*
G02*
X123679000Y-113693001I0J249999D01*
G01*
X123679000Y-110842999D01*
G75*
G02*
X123928999Y-110593000I249999J0D01*
G01*
X124654001Y-110593000D01*
G75*
G02*
X124904000Y-110842999I0J-249999D01*
G01*
G37*
%TD.AperFunction*%
%TD*%
%TO.P,R6,2*%
%TO.N,Net-(R6-Pad2)*%
%TA.AperFunction,SMDPad,CuDef*%
G36*
G01*
X117405998Y-87014000D02*
X118306002Y-87014000D01*
G75*
G02*
X118556000Y-87263998I0J-249998D01*
G01*
X118556000Y-87789002D01*
G75*
G02*
X118306002Y-88039000I-249998J0D01*
G01*
X117405998Y-88039000D01*
G75*
G02*
X117156000Y-87789002I0J249998D01*
G01*
X117156000Y-87263998D01*
G75*
G02*
X117405998Y-87014000I249998J0D01*
G01*
G37*
%TD.AperFunction*%
%TO.P,R6,1*%
%TO.N,+3V3*%
%TA.AperFunction,SMDPad,CuDef*%
G36*
G01*
X117405998Y-85189000D02*
X118306002Y-85189000D01*
G75*
G02*
X118556000Y-85438998I0J-249998D01*
G01*
X118556000Y-85964002D01*
G75*
G02*
X118306002Y-86214000I-249998J0D01*
G01*
X117405998Y-86214000D01*
G75*
G02*
X117156000Y-85964002I0J249998D01*
G01*
X117156000Y-85438998D01*
G75*
G02*
X117405998Y-85189000I249998J0D01*
G01*
G37*
%TD.AperFunction*%
%TD*%
%TO.P,C4,1*%
%TO.N,+3V3*%
%TA.AperFunction,SMDPad,CuDef*%
G36*
G01*
X138340800Y-121191000D02*
X138340800Y-122141000D01*
G75*
G02*
X138090800Y-122391000I-250000J0D01*
G01*
X137590800Y-122391000D01*
G75*
G02*
X137340800Y-122141000I0J250000D01*
G01*
X137340800Y-121191000D01*
G75*
G02*
X137590800Y-120941000I250000J0D01*
G01*
X138090800Y-120941000D01*
G75*
G02*
X138340800Y-121191000I0J-250000D01*
G01*
G37*
%TD.AperFunction*%
%TO.P,C4,2*%
%TO.N,GND*%
%TA.AperFunction,SMDPad,CuDef*%
G36*
G01*
X136440800Y-121191000D02*
X136440800Y-122141000D01*
G75*
G02*
X136190800Y-122391000I-250000J0D01*
G01*
X135690800Y-122391000D01*
G75*
G02*
X135440800Y-122141000I0J250000D01*
G01*
X135440800Y-121191000D01*
G75*
G02*
X135690800Y-120941000I250000J0D01*
G01*
X136190800Y-120941000D01*
G75*
G02*
X136440800Y-121191000I0J-250000D01*
G01*
G37*
%TD.AperFunction*%
%TD*%
%TO.P,R1,1*%
%TO.N,GND*%
%TA.AperFunction,SMDPad,CuDef*%
G36*
G01*
X131629998Y-105890000D02*
X132530002Y-105890000D01*
G75*
G02*
X132780000Y-106139998I0J-249998D01*
G01*
X132780000Y-106665002D01*
G75*
G02*
X132530002Y-106915000I-249998J0D01*
G01*
X131629998Y-106915000D01*
G75*
G02*
X131380000Y-106665002I0J249998D01*
G01*
X131380000Y-106139998D01*
G75*
G02*
X131629998Y-105890000I249998J0D01*
G01*
G37*
%TD.AperFunction*%
%TO.P,R1,2*%
%TO.N,Net-(R1-Pad2)*%
%TA.AperFunction,SMDPad,CuDef*%
G36*
G01*
X131629998Y-107715000D02*
X132530002Y-107715000D01*
G75*
G02*
X132780000Y-107964998I0J-249998D01*
G01*
X132780000Y-108490002D01*
G75*
G02*
X132530002Y-108740000I-249998J0D01*
G01*
X131629998Y-108740000D01*
G75*
G02*
X131380000Y-108490002I0J249998D01*
G01*
X131380000Y-107964998D01*
G75*
G02*
X131629998Y-107715000I249998J0D01*
G01*
G37*
%TD.AperFunction*%
%TD*%
%TO.P,U1,1*%
%TO.N,GND*%
%TA.AperFunction,SMDPad,CuDef*%
G36*
G01*
X130704000Y-109197000D02*
X130704000Y-109497000D01*
G75*
G02*
X130554000Y-109647000I-150000J0D01*
G01*
X129204000Y-109647000D01*
G75*
G02*
X129054000Y-109497000I0J150000D01*
G01*
X129054000Y-109197000D01*
G75*
G02*
X129204000Y-109047000I150000J0D01*
G01*
X130554000Y-109047000D01*
G75*
G02*
X130704000Y-109197000I0J-150000D01*
G01*
G37*
%TD.AperFunction*%
%TO.P,U1,2*%
%TO.N,Net-(R1-Pad2)*%
%TA.AperFunction,SMDPad,CuDef*%
G36*
G01*
X130704000Y-107927000D02*
X130704000Y-108227000D01*
G75*
G02*
X130554000Y-108377000I-150000J0D01*
G01*
X129204000Y-108377000D01*
G75*
G02*
X129054000Y-108227000I0J150000D01*
G01*
X129054000Y-107927000D01*
G75*
G02*
X129204000Y-107777000I150000J0D01*
G01*
X130554000Y-107777000D01*
G75*
G02*
X130704000Y-107927000I0J-150000D01*
G01*
G37*
%TD.AperFunction*%
%TO.P,U1,3*%
%TO.N,GND*%
%TA.AperFunction,SMDPad,CuDef*%
G36*
G01*
X130704000Y-106657000D02*
X130704000Y-106957000D01*
G75*
G02*
X130554000Y-107107000I-150000J0D01*
G01*
X129204000Y-107107000D01*
G75*
G02*
X129054000Y-106957000I0J150000D01*
G01*
X129054000Y-106657000D01*
G75*
G02*
X129204000Y-106507000I150000J0D01*
G01*
X130554000Y-106507000D01*
G75*
G02*
X130704000Y-106657000I0J-150000D01*
G01*
G37*
%TD.AperFunction*%
%TO.P,U1,4*%
%TO.N,Net-(C1-Pad1)*%
%TA.AperFunction,SMDPad,CuDef*%
G36*
G01*
X130704000Y-105387000D02*
X130704000Y-105687000D01*
G75*
G02*
X130554000Y-105837000I-150000J0D01*
G01*
X129204000Y-105837000D01*
G75*
G02*
X129054000Y-105687000I0J150000D01*
G01*
X129054000Y-105387000D01*
G75*
G02*
X129204000Y-105237000I150000J0D01*
G01*
X130554000Y-105237000D01*
G75*
G02*
X130704000Y-105387000I0J-150000D01*
G01*
G37*
%TD.AperFunction*%
%TO.P,U1,5*%
%TO.N,+BATT*%
%TA.AperFunction,SMDPad,CuDef*%
G36*
G01*
X125454000Y-105387000D02*
X125454000Y-105687000D01*
G75*
G02*
X125304000Y-105837000I-150000J0D01*
G01*
X123954000Y-105837000D01*
G75*
G02*
X123804000Y-105687000I0J150000D01*
G01*
X123804000Y-105387000D01*
G75*
G02*
X123954000Y-105237000I150000J0D01*
G01*
X125304000Y-105237000D01*
G75*
G02*
X125454000Y-105387000I0J-150000D01*
G01*
G37*
%TD.AperFunction*%
%TO.P,U1,6*%
%TO.N,Net-(D1-Pad3)*%
%TA.AperFunction,SMDPad,CuDef*%
G36*
G01*
X125454000Y-106657000D02*
X125454000Y-106957000D01*
G75*
G02*
X125304000Y-107107000I-150000J0D01*
G01*
X123954000Y-107107000D01*
G75*
G02*
X123804000Y-106957000I0J150000D01*
G01*
X123804000Y-106657000D01*
G75*
G02*
X123954000Y-106507000I150000J0D01*
G01*
X125304000Y-106507000D01*
G75*
G02*
X125454000Y-106657000I0J-150000D01*
G01*
G37*
%TD.AperFunction*%
%TO.P,U1,7*%
%TO.N,Net-(D1-Pad1)*%
%TA.AperFunction,SMDPad,CuDef*%
G36*
G01*
X125454000Y-107927000D02*
X125454000Y-108227000D01*
G75*
G02*
X125304000Y-108377000I-150000J0D01*
G01*
X123954000Y-108377000D01*
G75*
G02*
X123804000Y-108227000I0J150000D01*
G01*
X123804000Y-107927000D01*
G75*
G02*
X123954000Y-107777000I150000J0D01*
G01*
X125304000Y-107777000D01*
G75*
G02*
X125454000Y-107927000I0J-150000D01*
G01*
G37*
%TD.AperFunction*%
%TO.P,U1,8*%
%TO.N,Net-(C1-Pad1)*%
%TA.AperFunction,SMDPad,CuDef*%
G36*
G01*
X125454000Y-109197000D02*
X125454000Y-109497000D01*
G75*
G02*
X125304000Y-109647000I-150000J0D01*
G01*
X123954000Y-109647000D01*
G75*
G02*
X123804000Y-109497000I0J150000D01*
G01*
X123804000Y-109197000D01*
G75*
G02*
X123954000Y-109047000I150000J0D01*
G01*
X125304000Y-109047000D01*
G75*
G02*
X125454000Y-109197000I0J-150000D01*
G01*
G37*
%TD.AperFunction*%
%TD*%
D14*
%TO.P,BT1,1*%
%TO.N,+BATT*%
X133731000Y-124079000D03*
D13*
%TO.P,BT1,2*%
%TO.N,GND*%
X136271000Y-124079000D03*
%TD*%
%TO.P,R8,1*%
%TO.N,+3V3*%
%TA.AperFunction,SMDPad,CuDef*%
G36*
G01*
X135185998Y-86713000D02*
X136086002Y-86713000D01*
G75*
G02*
X136336000Y-86962998I0J-249998D01*
G01*
X136336000Y-87488002D01*
G75*
G02*
X136086002Y-87738000I-249998J0D01*
G01*
X135185998Y-87738000D01*
G75*
G02*
X134936000Y-87488002I0J249998D01*
G01*
X134936000Y-86962998D01*
G75*
G02*
X135185998Y-86713000I249998J0D01*
G01*
G37*
%TD.AperFunction*%
%TO.P,R8,2*%
%TO.N,/RST*%
%TA.AperFunction,SMDPad,CuDef*%
G36*
G01*
X135185998Y-88538000D02*
X136086002Y-88538000D01*
G75*
G02*
X136336000Y-88787998I0J-249998D01*
G01*
X136336000Y-89313002D01*
G75*
G02*
X136086002Y-89563000I-249998J0D01*
G01*
X135185998Y-89563000D01*
G75*
G02*
X134936000Y-89313002I0J249998D01*
G01*
X134936000Y-88787998D01*
G75*
G02*
X135185998Y-88538000I249998J0D01*
G01*
G37*
%TD.AperFunction*%
%TD*%
%TO.P,C3,2*%
%TO.N,GND*%
%TA.AperFunction,SMDPad,CuDef*%
G36*
G01*
X136456000Y-119006600D02*
X136456000Y-119956600D01*
G75*
G02*
X136206000Y-120206600I-250000J0D01*
G01*
X135706000Y-120206600D01*
G75*
G02*
X135456000Y-119956600I0J250000D01*
G01*
X135456000Y-119006600D01*
G75*
G02*
X135706000Y-118756600I250000J0D01*
G01*
X136206000Y-118756600D01*
G75*
G02*
X136456000Y-119006600I0J-250000D01*
G01*
G37*
%TD.AperFunction*%
%TO.P,C3,1*%
%TO.N,+3V3*%
%TA.AperFunction,SMDPad,CuDef*%
G36*
G01*
X138356000Y-119006600D02*
X138356000Y-119956600D01*
G75*
G02*
X138106000Y-120206600I-250000J0D01*
G01*
X137606000Y-120206600D01*
G75*
G02*
X137356000Y-119956600I0J250000D01*
G01*
X137356000Y-119006600D01*
G75*
G02*
X137606000Y-118756600I250000J0D01*
G01*
X138106000Y-118756600D01*
G75*
G02*
X138356000Y-119006600I0J-250000D01*
G01*
G37*
%TD.AperFunction*%
%TD*%
%TO.P,C5,1*%
%TO.N,+3V3*%
%TA.AperFunction,SMDPad,CuDef*%
G36*
G01*
X115933200Y-100632600D02*
X116883200Y-100632600D01*
G75*
G02*
X117133200Y-100882600I0J-250000D01*
G01*
X117133200Y-101382600D01*
G75*
G02*
X116883200Y-101632600I-250000J0D01*
G01*
X115933200Y-101632600D01*
G75*
G02*
X115683200Y-101382600I0J250000D01*
G01*
X115683200Y-100882600D01*
G75*
G02*
X115933200Y-100632600I250000J0D01*
G01*
G37*
%TD.AperFunction*%
%TO.P,C5,2*%
%TO.N,GND*%
%TA.AperFunction,SMDPad,CuDef*%
G36*
G01*
X115933200Y-102532600D02*
X116883200Y-102532600D01*
G75*
G02*
X117133200Y-102782600I0J-250000D01*
G01*
X117133200Y-103282600D01*
G75*
G02*
X116883200Y-103532600I-250000J0D01*
G01*
X115933200Y-103532600D01*
G75*
G02*
X115683200Y-103282600I0J250000D01*
G01*
X115683200Y-102782600D01*
G75*
G02*
X115933200Y-102532600I250000J0D01*
G01*
G37*
%TD.AperFunction*%
%TD*%
%TO.P,R7,2*%
%TO.N,/Flash*%
%TA.AperFunction,SMDPad,CuDef*%
G36*
G01*
X135185998Y-91967000D02*
X136086002Y-91967000D01*
G75*
G02*
X136336000Y-92216998I0J-249998D01*
G01*
X136336000Y-92742002D01*
G75*
G02*
X136086002Y-92992000I-249998J0D01*
G01*
X135185998Y-92992000D01*
G75*
G02*
X134936000Y-92742002I0J249998D01*
G01*
X134936000Y-92216998D01*
G75*
G02*
X135185998Y-91967000I249998J0D01*
G01*
G37*
%TD.AperFunction*%
%TO.P,R7,1*%
%TO.N,+3V3*%
%TA.AperFunction,SMDPad,CuDef*%
G36*
G01*
X135185998Y-90142000D02*
X136086002Y-90142000D01*
G75*
G02*
X136336000Y-90391998I0J-249998D01*
G01*
X136336000Y-90917002D01*
G75*
G02*
X136086002Y-91167000I-249998J0D01*
G01*
X135185998Y-91167000D01*
G75*
G02*
X134936000Y-90917002I0J249998D01*
G01*
X134936000Y-90391998D01*
G75*
G02*
X135185998Y-90142000I249998J0D01*
G01*
G37*
%TD.AperFunction*%
%TD*%
D22*
%TO.P,V1,1*%
%TO.N,Net-(SW1-Pad2)*%
X130042000Y-116069000D03*
%TO.P,V1,3*%
%TO.N,+3V3*%
X125482000Y-116069000D03*
D23*
%TO.P,V1,2*%
%TO.N,GND*%
X127762000Y-122369000D03*
%TD*%
%TO.P,C7,1*%
%TO.N,Net-(C7-Pad1)*%
%TA.AperFunction,SMDPad,CuDef*%
G36*
G01*
X118092200Y-100607200D02*
X119042200Y-100607200D01*
G75*
G02*
X119292200Y-100857200I0J-250000D01*
G01*
X119292200Y-101357200D01*
G75*
G02*
X119042200Y-101607200I-250000J0D01*
G01*
X118092200Y-101607200D01*
G75*
G02*
X117842200Y-101357200I0J250000D01*
G01*
X117842200Y-100857200D01*
G75*
G02*
X118092200Y-100607200I250000J0D01*
G01*
G37*
%TD.AperFunction*%
%TO.P,C7,2*%
%TO.N,GND*%
%TA.AperFunction,SMDPad,CuDef*%
G36*
G01*
X118092200Y-102507200D02*
X119042200Y-102507200D01*
G75*
G02*
X119292200Y-102757200I0J-250000D01*
G01*
X119292200Y-103257200D01*
G75*
G02*
X119042200Y-103507200I-250000J0D01*
G01*
X118092200Y-103507200D01*
G75*
G02*
X117842200Y-103257200I0J250000D01*
G01*
X117842200Y-102757200D01*
G75*
G02*
X118092200Y-102507200I250000J0D01*
G01*
G37*
%TD.AperFunction*%
%TD*%
%TO.P,C8,2*%
%TO.N,GND*%
%TA.AperFunction,SMDPad,CuDef*%
G36*
G01*
X137243400Y-103792000D02*
X137243400Y-104742000D01*
G75*
G02*
X136993400Y-104992000I-250000J0D01*
G01*
X136493400Y-104992000D01*
G75*
G02*
X136243400Y-104742000I0J250000D01*
G01*
X136243400Y-103792000D01*
G75*
G02*
X136493400Y-103542000I250000J0D01*
G01*
X136993400Y-103542000D01*
G75*
G02*
X137243400Y-103792000I0J-250000D01*
G01*
G37*
%TD.AperFunction*%
%TO.P,C8,1*%
%TO.N,Net-(C8-Pad1)*%
%TA.AperFunction,SMDPad,CuDef*%
G36*
G01*
X139143400Y-103792000D02*
X139143400Y-104742000D01*
G75*
G02*
X138893400Y-104992000I-250000J0D01*
G01*
X138393400Y-104992000D01*
G75*
G02*
X138143400Y-104742000I0J250000D01*
G01*
X138143400Y-103792000D01*
G75*
G02*
X138393400Y-103542000I250000J0D01*
G01*
X138893400Y-103542000D01*
G75*
G02*
X139143400Y-103792000I0J-250000D01*
G01*
G37*
%TD.AperFunction*%
%TD*%
D24*
%TO.N,GND*%
X133223000Y-98933000D03*
X121412000Y-101600000D03*
X132080000Y-120294400D03*
X138633200Y-117449600D03*
%TO.N,+3V3*%
X117094000Y-98297998D03*
X139877800Y-106908600D03*
%TO.N,Net-(J1-Pad1)*%
X123393198Y-121666000D03*
%TO.N,/TFT_RST*%
X136144000Y-85344000D03*
%TO.N,/TFT_RS*%
X133223002Y-96393000D03*
%TO.N,+BATT*%
X115570000Y-105029000D03*
X116459000Y-91313000D03*
X133705600Y-120396000D03*
%TO.N,/I2C_SCL*%
X134493637Y-101103411D03*
%TO.N,/I2C_SDA*%
X136271000Y-98996500D03*
%TO.N,/TFT_SDA*%
X117094000Y-95250000D03*
%TO.N,/TFT_SCL*%
X116459000Y-89153988D03*
%TO.N,Net-(C7-Pad1)*%
X119380000Y-99695000D03*
%TO.N,Net-(C8-Pad1)*%
X117475000Y-105029000D03*
X117094004Y-92837000D03*
X138531600Y-105892600D03*
%TO.N,Net-(SW1-Pad2)*%
X136804400Y-116128800D03*
%TD*%
D25*
%TO.N,GND*%
X132080000Y-106402500D02*
X131722500Y-106402500D01*
X131318000Y-106807000D02*
X129879000Y-106807000D01*
X131722500Y-106402500D02*
X131318000Y-106807000D01*
X129879000Y-106807000D02*
X128778000Y-106807000D01*
X128778000Y-106807000D02*
X128397000Y-107188000D01*
X128397000Y-107188000D02*
X128397000Y-108966000D01*
X128778000Y-109347000D02*
X129879000Y-109347000D01*
X128397000Y-108966000D02*
X128778000Y-109347000D01*
X126172000Y-103632000D02*
X129352000Y-103632000D01*
X130301000Y-101236000D02*
X129286000Y-102251000D01*
X129286000Y-103566000D02*
X129352000Y-103632000D01*
X129286000Y-102251000D02*
X129286000Y-103566000D01*
X132334000Y-106148500D02*
X132080000Y-106402500D01*
X136144000Y-123952000D02*
X136271000Y-124079000D01*
X132574001Y-98284001D02*
X133223000Y-98933000D01*
X131305000Y-98284001D02*
X132574001Y-98284001D01*
X132334000Y-102997000D02*
X132334000Y-106148500D01*
X133223000Y-98933000D02*
X132334000Y-99822000D01*
X132334000Y-102743000D02*
X132334000Y-102997000D01*
X132224000Y-101236000D02*
X132334000Y-101346000D01*
X130301000Y-101236000D02*
X132224000Y-101236000D01*
X132334000Y-101346000D02*
X132334000Y-102743000D01*
X132334000Y-99822000D02*
X132334000Y-101346000D01*
X122189817Y-101600000D02*
X121412000Y-101600000D01*
X123078817Y-102489000D02*
X122189817Y-101600000D01*
X125029000Y-102489000D02*
X123078817Y-102489000D01*
X126172000Y-103632000D02*
X125029000Y-102489000D01*
X121412000Y-101600000D02*
X120599200Y-101600000D01*
X119192000Y-103007200D02*
X118567200Y-103007200D01*
X120599200Y-101600000D02*
X119192000Y-103007200D01*
X116433600Y-103007200D02*
X116408200Y-103032600D01*
X118567200Y-103007200D02*
X116433600Y-103007200D01*
X129836600Y-120294400D02*
X127762000Y-122369000D01*
X132080000Y-120294400D02*
X129836600Y-120294400D01*
X136743400Y-103032600D02*
X136779000Y-102997000D01*
X136743400Y-104267000D02*
X136743400Y-103032600D01*
X132334000Y-102997000D02*
X136779000Y-102997000D01*
X138684000Y-101092000D02*
X136779000Y-102997000D01*
X138684000Y-99187000D02*
X138684000Y-101092000D01*
X135956000Y-121650800D02*
X135940800Y-121666000D01*
X135956000Y-119481600D02*
X135956000Y-121650800D01*
X135940800Y-123748800D02*
X136271000Y-124079000D01*
X135940800Y-121666000D02*
X135940800Y-123748800D01*
X129879000Y-109347000D02*
X130733800Y-109347000D01*
X130733800Y-109347000D02*
X131622800Y-110236000D01*
X135956000Y-119481600D02*
X135128000Y-119481600D01*
X135128000Y-119481600D02*
X134874000Y-119227600D01*
X133146800Y-119227600D02*
X132080000Y-120294400D01*
X134874000Y-119227600D02*
X133146800Y-119227600D01*
X131622800Y-110947200D02*
X131622800Y-113792000D01*
X131622800Y-110236000D02*
X131622800Y-110947200D01*
X131622800Y-113792000D02*
X132232400Y-114401600D01*
X136761000Y-114394200D02*
X136753600Y-114401600D01*
X136761000Y-112776000D02*
X136761000Y-114394200D01*
X132232400Y-114401600D02*
X136753600Y-114401600D01*
X138633200Y-116281200D02*
X136753600Y-114401600D01*
X138633200Y-117449600D02*
X138633200Y-116281200D01*
%TO.N,Net-(C1-Pad1)*%
X124629000Y-109347000D02*
X127381000Y-109347000D01*
X127381000Y-108458000D02*
X127381000Y-109347000D01*
X127381000Y-107210000D02*
X127381000Y-107315000D01*
X129054000Y-105537000D02*
X127381000Y-107210000D01*
X129879000Y-105537000D02*
X129054000Y-105537000D01*
X127381000Y-107315000D02*
X127381000Y-108458000D01*
X129879000Y-105005000D02*
X131252000Y-103632000D01*
X129879000Y-105537000D02*
X129879000Y-105005000D01*
X127381000Y-110744000D02*
X127381000Y-108458000D01*
X127381000Y-111760000D02*
X127381000Y-110744000D01*
X127889000Y-112268000D02*
X127381000Y-111760000D01*
X130216500Y-112268000D02*
X127889000Y-112268000D01*
X122936000Y-109347000D02*
X124629000Y-109347000D01*
X120038500Y-112244500D02*
X122936000Y-109347000D01*
X120038500Y-113284000D02*
X120038500Y-112244500D01*
%TO.N,+3V3*%
X139827000Y-86487000D02*
X138684000Y-86487000D01*
X140081000Y-86741000D02*
X139827000Y-86487000D01*
X138684000Y-86487000D02*
X139700000Y-86487000D01*
X140309010Y-86969010D02*
X140208000Y-86868000D01*
X140208000Y-86868000D02*
X139827000Y-86487000D01*
X140309010Y-90906010D02*
X140309010Y-91084990D01*
X140208000Y-90297000D02*
X140309010Y-90195990D01*
X139319000Y-90297000D02*
X140208000Y-90297000D01*
X140309010Y-90195990D02*
X140309010Y-86969010D01*
X140309010Y-91084990D02*
X140309010Y-90195990D01*
X139319000Y-90297000D02*
X139573000Y-90297000D01*
X137437500Y-90654500D02*
X137795000Y-90297000D01*
X135636000Y-90654500D02*
X137437500Y-90654500D01*
X137795000Y-90297000D02*
X139319000Y-90297000D01*
X137945500Y-87225500D02*
X138684000Y-86487000D01*
X135636000Y-87225500D02*
X137945500Y-87225500D01*
X117107997Y-98284001D02*
X117094000Y-98297998D01*
X118986000Y-98284001D02*
X117107997Y-98284001D01*
X118986000Y-98284001D02*
X120917999Y-98284001D01*
X120917999Y-98284001D02*
X122047000Y-97155000D01*
X122047000Y-97155000D02*
X122047000Y-86487000D01*
X121261500Y-85701500D02*
X117856000Y-85701500D01*
X122047000Y-86487000D02*
X121261500Y-85701500D01*
X116408200Y-98983798D02*
X117094000Y-98297998D01*
X116408200Y-101132600D02*
X116408200Y-98983798D01*
X137566400Y-107696000D02*
X136761000Y-107696000D01*
X139090400Y-107696000D02*
X139877800Y-106908600D01*
X138277600Y-108966000D02*
X138277600Y-107746800D01*
X136761000Y-107696000D02*
X138328400Y-107696000D01*
X138277600Y-107746800D02*
X138328400Y-107696000D01*
X138328400Y-107696000D02*
X139090400Y-107696000D01*
X138277600Y-108966000D02*
X138277600Y-108407200D01*
X139877800Y-101217820D02*
X140309010Y-100786610D01*
X139877800Y-106908600D02*
X139877800Y-101217820D01*
X140309010Y-91084990D02*
X140309010Y-100786610D01*
X124682002Y-100697002D02*
X125221000Y-101236000D01*
X120714798Y-100697002D02*
X124682002Y-100697002D01*
X119354600Y-102057200D02*
X120714798Y-100697002D01*
X117332800Y-102057200D02*
X119354600Y-102057200D01*
X116408200Y-101132600D02*
X117332800Y-102057200D01*
X136484400Y-118110000D02*
X137856000Y-119481600D01*
X137856000Y-121650800D02*
X137840800Y-121666000D01*
X137856000Y-119481600D02*
X137856000Y-121650800D01*
X138277600Y-114249200D02*
X138277600Y-108966000D01*
X139877800Y-115849400D02*
X138277600Y-114249200D01*
X139877800Y-118694200D02*
X139877800Y-115849400D01*
X139090400Y-119481600D02*
X139877800Y-118694200D01*
X137856000Y-119481600D02*
X139090400Y-119481600D01*
X125482000Y-116069000D02*
X125482000Y-117658800D01*
X125482000Y-117658800D02*
X126288800Y-118465600D01*
X126288800Y-118465600D02*
X134874000Y-118465600D01*
X134874000Y-118465600D02*
X135229600Y-118110000D01*
X135229600Y-118110000D02*
X136484400Y-118110000D01*
%TO.N,/RST*%
X135659500Y-89027000D02*
X135636000Y-89050500D01*
X138684000Y-89027000D02*
X135659500Y-89027000D01*
X132828001Y-87616001D02*
X134262500Y-89050500D01*
X131305000Y-87616001D02*
X132828001Y-87616001D01*
X135636000Y-89050500D02*
X134262500Y-89050500D01*
%TO.N,Net-(D1-Pad2)*%
X118364000Y-109982000D02*
X116967000Y-109982000D01*
X116967000Y-109982000D02*
X116332000Y-110617000D01*
X116332000Y-110617000D02*
X116332000Y-112649000D01*
X116967000Y-113284000D02*
X118213500Y-113284000D01*
X116332000Y-112649000D02*
X116967000Y-113284000D01*
%TO.N,Net-(D1-Pad3)*%
X124629000Y-106807000D02*
X121539000Y-106807000D01*
X119634000Y-108712000D02*
X118364000Y-108712000D01*
X121539000Y-106807000D02*
X119634000Y-108712000D01*
%TO.N,Net-(J1-Pad6)*%
X118518000Y-124277000D02*
X119018000Y-123777000D01*
D26*
X116518000Y-124277000D02*
X118518000Y-124277000D01*
X116518000Y-117277000D02*
X116518000Y-124277000D01*
X118518000Y-117277000D02*
X119018000Y-117777000D01*
X116518000Y-117277000D02*
X118518000Y-117277000D01*
X119018000Y-117777000D02*
X119018000Y-123777000D01*
D25*
%TO.N,Net-(J1-Pad1)*%
X123393198Y-113166302D02*
X124291500Y-112268000D01*
X123393198Y-121666000D02*
X123393198Y-113166302D01*
%TO.N,/Flash*%
X137771500Y-92479500D02*
X138684000Y-91567000D01*
X135636000Y-92479500D02*
X137771500Y-92479500D01*
X139859001Y-92742001D02*
X138684000Y-91567000D01*
X131305000Y-95236001D02*
X133463001Y-95236001D01*
X139159352Y-97910650D02*
X139859001Y-97211001D01*
X133463001Y-95236001D02*
X134334250Y-96107250D01*
X133388100Y-100418900D02*
X133388100Y-101638100D01*
X134334250Y-96107250D02*
X134334250Y-99472750D01*
X134334250Y-99472750D02*
X133388100Y-100418900D01*
X133388100Y-101638100D02*
X133832600Y-102082600D01*
X133832600Y-102082600D02*
X135788400Y-102082600D01*
X137185400Y-100685600D02*
X137185400Y-98653600D01*
X135788400Y-102082600D02*
X137185400Y-100685600D01*
X137185400Y-98653600D02*
X137928350Y-97910650D01*
X137928350Y-97910650D02*
X139159352Y-97910650D01*
X139859001Y-97211001D02*
X139859001Y-92742001D01*
%TO.N,/TX*%
X132428981Y-89140001D02*
X131305000Y-89140001D01*
X134166490Y-90877510D02*
X132428981Y-89140001D01*
X134166490Y-92535680D02*
X134166490Y-90877510D01*
X135737810Y-94107000D02*
X134166490Y-92535680D01*
X138684000Y-94107000D02*
X135737810Y-94107000D01*
%TO.N,/RX*%
X132555000Y-90664001D02*
X131305000Y-90664001D01*
X133276999Y-91386001D02*
X132555000Y-90664001D01*
X133276999Y-92442080D02*
X133276999Y-91386001D01*
X137481919Y-96647000D02*
X133276999Y-92442080D01*
X138684000Y-96647000D02*
X137481919Y-96647000D01*
%TO.N,/TFT_RST*%
X134338002Y-85344000D02*
X133590001Y-86092001D01*
X136144000Y-85344000D02*
X134338002Y-85344000D01*
X131305000Y-86092001D02*
X133590001Y-86092001D01*
%TO.N,/TFT_RS*%
X131305000Y-96760001D02*
X132856001Y-96760001D01*
X132856001Y-96760001D02*
X133223002Y-96393000D01*
%TO.N,Net-(R1-Pad2)*%
X130029500Y-108227500D02*
X129879000Y-108077000D01*
X132080000Y-108227500D02*
X130029500Y-108227500D01*
%TO.N,Net-(R6-Pad2)*%
X120663999Y-90664001D02*
X118986000Y-90664001D01*
X121031000Y-90297000D02*
X120663999Y-90664001D01*
X121031000Y-87884000D02*
X121031000Y-90297000D01*
X120673500Y-87526500D02*
X121031000Y-87884000D01*
X117856000Y-87526500D02*
X120673500Y-87526500D01*
%TO.N,+BATT*%
X124272000Y-105180000D02*
X124629000Y-105537000D01*
X124272000Y-103505000D02*
X124272000Y-105180000D01*
X116459000Y-91313000D02*
X115316000Y-91313000D01*
X115316000Y-91313000D02*
X114833400Y-91795600D01*
X114833400Y-104292400D02*
X115570000Y-105029000D01*
X114833400Y-91795600D02*
X114833400Y-104292400D01*
X133731000Y-120421400D02*
X133705600Y-120396000D01*
X133731000Y-124079000D02*
X133731000Y-120421400D01*
X118643400Y-105384600D02*
X118643400Y-104698800D01*
X117856000Y-106172000D02*
X118643400Y-105384600D01*
X118643400Y-104698800D02*
X120459500Y-102882700D01*
X116713000Y-106172000D02*
X117856000Y-106172000D01*
X115570000Y-105029000D02*
X116713000Y-106172000D01*
X122758200Y-103632000D02*
X122008900Y-102882700D01*
X124272000Y-103632000D02*
X122758200Y-103632000D01*
X120459500Y-102882700D02*
X122008900Y-102882700D01*
%TO.N,/I2C_SCL*%
X135128000Y-100469048D02*
X134493637Y-101103411D01*
X135128000Y-96112584D02*
X135128000Y-100469048D01*
X132727416Y-93712001D02*
X135128000Y-96112584D01*
X131305000Y-93712001D02*
X132727416Y-93712001D01*
%TO.N,/I2C_SDA*%
X132193001Y-92188001D02*
X131305000Y-92188001D01*
X136271000Y-96266000D02*
X132193001Y-92188001D01*
X136271000Y-98996500D02*
X136271000Y-96266000D01*
%TO.N,/TFT_SDA*%
X117107999Y-95236001D02*
X117094000Y-95250000D01*
X118986000Y-95236001D02*
X117107999Y-95236001D01*
%TO.N,/TFT_SCL*%
X117475000Y-90169988D02*
X116459000Y-89153988D01*
X118986000Y-92188001D02*
X117736000Y-92188001D01*
X117475000Y-91927001D02*
X117475000Y-90169988D01*
X117736000Y-92188001D02*
X117475000Y-91927001D01*
%TO.N,Net-(D1-Pad1)*%
X119227600Y-111252000D02*
X122402600Y-108077000D01*
X118364000Y-111252000D02*
X119227600Y-111252000D01*
X124629000Y-108077000D02*
X122402600Y-108077000D01*
%TO.N,Net-(C7-Pad1)*%
X127761000Y-101236000D02*
X127761000Y-100186000D01*
X127270000Y-99695000D02*
X119380000Y-99695000D01*
X127761000Y-100186000D02*
X127270000Y-99695000D01*
X119380000Y-100294400D02*
X118567200Y-101107200D01*
X119380000Y-99695000D02*
X119380000Y-100294400D01*
%TO.N,Net-(C8-Pad1)*%
X138684000Y-104226400D02*
X138643400Y-104267000D01*
X138531600Y-105892600D02*
X136702800Y-105892600D01*
X117094004Y-92837000D02*
X115766010Y-92837000D01*
X115766010Y-92837000D02*
X115283410Y-93319600D01*
X115283410Y-93319600D02*
X115283410Y-103650210D01*
X115811300Y-104178100D02*
X116624100Y-104178100D01*
X115283410Y-103650210D02*
X115811300Y-104178100D01*
X117475000Y-105029000D02*
X116624100Y-104178100D01*
X138643400Y-105780800D02*
X138531600Y-105892600D01*
X138643400Y-104267000D02*
X138643400Y-105780800D01*
X136761000Y-110236000D02*
X136144000Y-110236000D01*
X136144000Y-110236000D02*
X135382000Y-109474000D01*
X135382000Y-109474000D02*
X135382000Y-106781600D01*
X135382000Y-106781600D02*
X136271000Y-105892600D01*
X136702800Y-105892600D02*
X136271000Y-105892600D01*
%TO.N,Net-(SW1-Pad2)*%
X131632991Y-117659991D02*
X130042000Y-116069000D01*
X135273209Y-117659991D02*
X131632991Y-117659991D01*
X136804400Y-116128800D02*
X135273209Y-117659991D01*
%TD*%
M02*
