%TF.GenerationSoftware,KiCad,Pcbnew,(5.1.7)-1*%
%TF.CreationDate,2021-09-18T16:18:18+01:00*%
%TF.ProjectId,RcCtlHw,52634374-6c48-4772-9e6b-696361645f70,rev?*%
%TF.SameCoordinates,Original*%
%TF.FileFunction,Other,User*%
%FSLAX46Y46*%
G04 Gerber Fmt 4.6, Leading zero omitted, Abs format (unit mm)*
G04 Created by KiCad (PCBNEW (5.1.7)-1) date 2021-09-18 16:18:18*
%MOMM*%
%LPD*%
G01*
G04 APERTURE LIST*
%TA.AperFunction,Profile*%
%ADD10C,0.050000*%
%TD*%
%ADD11C,0.050000*%
%ADD12C,0.120000*%
G04 APERTURE END LIST*
D10*
X114300000Y-84455000D02*
X140970000Y-84455000D01*
X140970000Y-84455000D02*
X140970000Y-84836000D01*
X114300000Y-84709000D02*
X114300000Y-84455000D01*
X140970000Y-126365000D02*
X140970000Y-119380000D01*
X114300000Y-126365000D02*
X140970000Y-126365000D01*
X114300000Y-119380000D02*
X114300000Y-126365000D01*
X114300000Y-119380000D02*
X114300000Y-84709000D01*
X140970000Y-84836000D02*
X140970000Y-119380000D01*
D11*
%TO.C,J2*%
X140484000Y-84687000D02*
X140484000Y-100987000D01*
X140484000Y-100987000D02*
X136884000Y-100987000D01*
X136884000Y-100987000D02*
X136884000Y-84687000D01*
X136884000Y-84687000D02*
X140484000Y-84687000D01*
D12*
%TO.C,D1*%
X117414000Y-111852000D02*
X116414000Y-111852000D01*
X116414000Y-111852000D02*
X116414000Y-106352000D01*
X116414000Y-106352000D02*
X117414000Y-106352000D01*
X117414000Y-106352000D02*
X117414000Y-111802000D01*
X116414000Y-111852000D02*
X111314000Y-111852000D01*
X116414000Y-106852000D02*
X111364000Y-106852000D01*
X111314002Y-106851502D02*
G75*
G03*
X111364000Y-111852000I-1J-2500499D01*
G01*
D11*
%TO.C,U3*%
X121437000Y-99640000D02*
X121437000Y-95940000D01*
X127737000Y-99640000D02*
X127737000Y-95940000D01*
X121437000Y-99640000D02*
X127737000Y-99640000D01*
X121437000Y-95940000D02*
X127737000Y-95940000D01*
%TO.C,C6*%
X124665000Y-93817000D02*
X128065000Y-93817000D01*
X124665000Y-91857000D02*
X124665000Y-93817000D01*
X128065000Y-91857000D02*
X124665000Y-91857000D01*
X128065000Y-93817000D02*
X128065000Y-91857000D01*
%TO.C,R10*%
X127156000Y-95819000D02*
X127156000Y-93919000D01*
X127156000Y-93919000D02*
X123796000Y-93919000D01*
X123796000Y-93919000D02*
X123796000Y-95819000D01*
X123796000Y-95819000D02*
X127156000Y-95819000D01*
%TO.C,V2*%
X131902000Y-96009000D02*
X131902000Y-98809000D01*
X128702000Y-98809000D02*
X128702000Y-96009000D01*
X128702000Y-98809000D02*
X131902000Y-98809000D01*
X128702000Y-96009000D02*
X131902000Y-96009000D01*
%TO.C,BT1*%
X131931000Y-122279000D02*
X138081000Y-122279000D01*
X138081000Y-122279000D02*
X138081000Y-125879000D01*
X138081000Y-125879000D02*
X131931000Y-125879000D01*
X131931000Y-125879000D02*
X131931000Y-122279000D01*
%TO.C,R9*%
X123600000Y-93919000D02*
X120240000Y-93919000D01*
X123600000Y-95819000D02*
X123600000Y-93919000D01*
X120240000Y-95819000D02*
X123600000Y-95819000D01*
X120240000Y-93919000D02*
X120240000Y-95819000D01*
%TO.C,R11*%
X130712000Y-93919000D02*
X127352000Y-93919000D01*
X130712000Y-95819000D02*
X130712000Y-93919000D01*
X127352000Y-95819000D02*
X130712000Y-95819000D01*
X127352000Y-93919000D02*
X127352000Y-95819000D01*
%TO.C,C9*%
X121159800Y-91857000D02*
X121159800Y-93817000D01*
X121159800Y-93817000D02*
X124559800Y-93817000D01*
X124559800Y-93817000D02*
X124559800Y-91857000D01*
X124559800Y-91857000D02*
X121159800Y-91857000D01*
%TD*%
M02*
