%TF.GenerationSoftware,KiCad,Pcbnew,(5.1.7)-1*%
%TF.CreationDate,2021-09-18T16:18:18+01:00*%
%TF.ProjectId,RcCtlHw,52634374-6c48-4772-9e6b-696361645f70,rev?*%
%TF.SameCoordinates,Original*%
%TF.FileFunction,Other,User*%
%FSLAX46Y46*%
G04 Gerber Fmt 4.6, Leading zero omitted, Abs format (unit mm)*
G04 Created by KiCad (PCBNEW (5.1.7)-1) date 2021-09-18 16:18:18*
%MOMM*%
%LPD*%
G01*
G04 APERTURE LIST*
%TA.AperFunction,Profile*%
%ADD10C,0.050000*%
%TD*%
%ADD11C,0.050000*%
G04 APERTURE END LIST*
D10*
X114300000Y-84455000D02*
X140970000Y-84455000D01*
X140970000Y-84455000D02*
X140970000Y-84836000D01*
X114300000Y-84709000D02*
X114300000Y-84455000D01*
X140970000Y-126365000D02*
X140970000Y-119380000D01*
X114300000Y-126365000D02*
X140970000Y-126365000D01*
X114300000Y-119380000D02*
X114300000Y-126365000D01*
X114300000Y-119380000D02*
X114300000Y-84709000D01*
X140970000Y-84836000D02*
X140970000Y-119380000D01*
D11*
%TO.C,R3*%
X120806000Y-114234000D02*
X117446000Y-114234000D01*
X120806000Y-112334000D02*
X120806000Y-114234000D01*
X117446000Y-112334000D02*
X120806000Y-112334000D01*
X117446000Y-114234000D02*
X117446000Y-112334000D01*
%TO.C,C1*%
X132002000Y-102652000D02*
X132002000Y-104612000D01*
X132002000Y-104612000D02*
X128602000Y-104612000D01*
X128602000Y-104612000D02*
X128602000Y-102652000D01*
X128602000Y-102652000D02*
X132002000Y-102652000D01*
%TO.C,C2*%
X123522000Y-104612000D02*
X123522000Y-102652000D01*
X123522000Y-102652000D02*
X126922000Y-102652000D01*
X126922000Y-102652000D02*
X126922000Y-104612000D01*
X126922000Y-104612000D02*
X123522000Y-104612000D01*
%TO.C,R2*%
X131074000Y-110348000D02*
X131074000Y-114188000D01*
X131074000Y-114188000D02*
X123434000Y-114188000D01*
X123434000Y-114188000D02*
X123434000Y-110348000D01*
X123434000Y-110348000D02*
X131074000Y-110348000D01*
%TO.C,R6*%
X116906000Y-88294000D02*
X116906000Y-84934000D01*
X118806000Y-88294000D02*
X116906000Y-88294000D01*
X118806000Y-84934000D02*
X118806000Y-88294000D01*
X116906000Y-84934000D02*
X118806000Y-84934000D01*
%TO.C,C4*%
X138590800Y-120686000D02*
X138590800Y-122646000D01*
X138590800Y-122646000D02*
X135190800Y-122646000D01*
X135190800Y-122646000D02*
X135190800Y-120686000D01*
X135190800Y-120686000D02*
X138590800Y-120686000D01*
%TO.C,R1*%
X131130000Y-105635000D02*
X133030000Y-105635000D01*
X133030000Y-105635000D02*
X133030000Y-108995000D01*
X133030000Y-108995000D02*
X131130000Y-108995000D01*
X131130000Y-108995000D02*
X131130000Y-105635000D01*
%TO.C,U1*%
X130954000Y-110142000D02*
X130954000Y-104742000D01*
X130954000Y-104742000D02*
X123554000Y-104742000D01*
X123554000Y-104742000D02*
X123554000Y-110142000D01*
X123554000Y-110142000D02*
X130954000Y-110142000D01*
%TO.C,R8*%
X134686000Y-86458000D02*
X136586000Y-86458000D01*
X136586000Y-86458000D02*
X136586000Y-89818000D01*
X136586000Y-89818000D02*
X134686000Y-89818000D01*
X134686000Y-89818000D02*
X134686000Y-86458000D01*
%TO.C,C3*%
X135206000Y-118501600D02*
X138606000Y-118501600D01*
X135206000Y-120461600D02*
X135206000Y-118501600D01*
X138606000Y-120461600D02*
X135206000Y-120461600D01*
X138606000Y-118501600D02*
X138606000Y-120461600D01*
%TO.C,C5*%
X115428200Y-100382600D02*
X117388200Y-100382600D01*
X117388200Y-100382600D02*
X117388200Y-103782600D01*
X117388200Y-103782600D02*
X115428200Y-103782600D01*
X115428200Y-103782600D02*
X115428200Y-100382600D01*
%TO.C,R7*%
X134686000Y-93247000D02*
X134686000Y-89887000D01*
X136586000Y-93247000D02*
X134686000Y-93247000D01*
X136586000Y-89887000D02*
X136586000Y-93247000D01*
X134686000Y-89887000D02*
X136586000Y-89887000D01*
%TO.C,V1*%
X131262000Y-114719000D02*
X124262000Y-114719000D01*
X124262000Y-114719000D02*
X124262000Y-125819000D01*
X124262000Y-125819000D02*
X131262000Y-125819000D01*
X131262000Y-125819000D02*
X131262000Y-114719000D01*
%TO.C,C7*%
X117587200Y-100357200D02*
X119547200Y-100357200D01*
X119547200Y-100357200D02*
X119547200Y-103757200D01*
X119547200Y-103757200D02*
X117587200Y-103757200D01*
X117587200Y-103757200D02*
X117587200Y-100357200D01*
%TO.C,C8*%
X135993400Y-103287000D02*
X139393400Y-103287000D01*
X135993400Y-105247000D02*
X135993400Y-103287000D01*
X139393400Y-105247000D02*
X135993400Y-105247000D01*
X139393400Y-103287000D02*
X139393400Y-105247000D01*
%TD*%
M02*
