%TF.GenerationSoftware,KiCad,Pcbnew,(5.1.7)-1*%
%TF.CreationDate,2021-09-18T16:18:18+01:00*%
%TF.ProjectId,RcCtlHw,52634374-6c48-4772-9e6b-696361645f70,rev?*%
%TF.SameCoordinates,Original*%
%TF.FileFunction,Other,Fab,Bot*%
%FSLAX46Y46*%
G04 Gerber Fmt 4.6, Leading zero omitted, Abs format (unit mm)*
G04 Created by KiCad (PCBNEW (5.1.7)-1) date 2021-09-18 16:18:18*
%MOMM*%
%LPD*%
G01*
G04 APERTURE LIST*
%TA.AperFunction,Profile*%
%ADD10C,0.050000*%
%TD*%
%ADD11C,0.100000*%
%ADD12C,0.150000*%
%ADD13C,0.080000*%
%ADD14C,0.075000*%
G04 APERTURE END LIST*
D10*
X114300000Y-84455000D02*
X140970000Y-84455000D01*
X140970000Y-84455000D02*
X140970000Y-84836000D01*
X114300000Y-84709000D02*
X114300000Y-84455000D01*
X140970000Y-126365000D02*
X140970000Y-119380000D01*
X114300000Y-126365000D02*
X140970000Y-126365000D01*
X114300000Y-119380000D02*
X114300000Y-126365000D01*
X114300000Y-119380000D02*
X114300000Y-84709000D01*
X140970000Y-84836000D02*
X140970000Y-119380000D01*
D11*
%TO.C,J2*%
X139319000Y-85217000D02*
X137414000Y-85217000D01*
X137414000Y-85217000D02*
X137414000Y-100457000D01*
X137414000Y-100457000D02*
X139954000Y-100457000D01*
X139954000Y-100457000D02*
X139954000Y-85852000D01*
X139954000Y-85852000D02*
X139319000Y-85217000D01*
D12*
%TO.C,U3*%
X124087000Y-99290000D02*
X126087000Y-99290000D01*
X126087000Y-99290000D02*
X126087000Y-96290000D01*
X126087000Y-96290000D02*
X123087000Y-96290000D01*
X123087000Y-96290000D02*
X123087000Y-98290000D01*
X123087000Y-98290000D02*
X124087000Y-99290000D01*
D11*
%TO.C,C6*%
X125365000Y-93462000D02*
X127365000Y-93462000D01*
X125365000Y-92212000D02*
X125365000Y-93462000D01*
X127365000Y-92212000D02*
X125365000Y-92212000D01*
X127365000Y-93462000D02*
X127365000Y-92212000D01*
%TO.C,R10*%
X126476000Y-95494000D02*
X126476000Y-94244000D01*
X126476000Y-94244000D02*
X124476000Y-94244000D01*
X124476000Y-94244000D02*
X124476000Y-95494000D01*
X124476000Y-95494000D02*
X126476000Y-95494000D01*
%TO.C,V2*%
X130977000Y-98509000D02*
X130127000Y-98509000D01*
X129627000Y-98009000D02*
X129627000Y-96309000D01*
X130977000Y-98509000D02*
X130977000Y-96309000D01*
X130977000Y-96309000D02*
X129627000Y-96309000D01*
X130127000Y-98509000D02*
X129627000Y-98009000D01*
%TO.C,BT1*%
X132461000Y-123444000D02*
X132461000Y-125349000D01*
X132461000Y-125349000D02*
X137541000Y-125349000D01*
X137541000Y-125349000D02*
X137541000Y-122809000D01*
X137541000Y-122809000D02*
X133096000Y-122809000D01*
X133096000Y-122809000D02*
X132461000Y-123444000D01*
%TO.C,R9*%
X122920000Y-94244000D02*
X120920000Y-94244000D01*
X122920000Y-95494000D02*
X122920000Y-94244000D01*
X120920000Y-95494000D02*
X122920000Y-95494000D01*
X120920000Y-94244000D02*
X120920000Y-95494000D01*
%TO.C,R11*%
X130032000Y-94244000D02*
X128032000Y-94244000D01*
X130032000Y-95494000D02*
X130032000Y-94244000D01*
X128032000Y-95494000D02*
X130032000Y-95494000D01*
X128032000Y-94244000D02*
X128032000Y-95494000D01*
%TO.C,C9*%
X121859800Y-92212000D02*
X121859800Y-93462000D01*
X121859800Y-93462000D02*
X123859800Y-93462000D01*
X123859800Y-93462000D02*
X123859800Y-92212000D01*
X123859800Y-92212000D02*
X121859800Y-92212000D01*
%TD*%
%TO.C,SW1*%
D12*
X139507980Y-103167133D02*
X139507980Y-103357609D01*
X139555600Y-103452847D01*
X139650838Y-103548085D01*
X139841314Y-103595704D01*
X140174647Y-103595704D01*
X140365123Y-103548085D01*
X140460361Y-103452847D01*
X140507980Y-103357609D01*
X140507980Y-103167133D01*
X140460361Y-103071895D01*
X140365123Y-102976657D01*
X140174647Y-102929038D01*
X139841314Y-102929038D01*
X139650838Y-102976657D01*
X139555600Y-103071895D01*
X139507980Y-103167133D01*
X139841314Y-104024276D02*
X140507980Y-104024276D01*
X139936552Y-104024276D02*
X139888933Y-104071895D01*
X139841314Y-104167133D01*
X139841314Y-104309990D01*
X139888933Y-104405228D01*
X139984171Y-104452847D01*
X140507980Y-104452847D01*
X139460361Y-105643323D02*
X140746076Y-104786180D01*
X139507980Y-106167133D02*
X139507980Y-106357609D01*
X139555600Y-106452847D01*
X139650838Y-106548085D01*
X139841314Y-106595704D01*
X140174647Y-106595704D01*
X140365123Y-106548085D01*
X140460361Y-106452847D01*
X140507980Y-106357609D01*
X140507980Y-106167133D01*
X140460361Y-106071895D01*
X140365123Y-105976657D01*
X140174647Y-105929038D01*
X139841314Y-105929038D01*
X139650838Y-105976657D01*
X139555600Y-106071895D01*
X139507980Y-106167133D01*
X139841314Y-106881419D02*
X139841314Y-107262371D01*
X140507980Y-107024276D02*
X139650838Y-107024276D01*
X139555600Y-107071895D01*
X139507980Y-107167133D01*
X139507980Y-107262371D01*
X139841314Y-107452847D02*
X139841314Y-107833800D01*
X140507980Y-107595704D02*
X139650838Y-107595704D01*
X139555600Y-107643323D01*
X139507980Y-107738561D01*
X139507980Y-107833800D01*
%TO.C,J2*%
X136596380Y-95139238D02*
X135596380Y-95139238D01*
X135596380Y-95520190D01*
X135644000Y-95615428D01*
X135691619Y-95663047D01*
X135786857Y-95710666D01*
X135929714Y-95710666D01*
X136024952Y-95663047D01*
X136072571Y-95615428D01*
X136120190Y-95520190D01*
X136120190Y-95139238D01*
X136596380Y-96139238D02*
X135929714Y-96139238D01*
X136120190Y-96139238D02*
X136024952Y-96186857D01*
X135977333Y-96234476D01*
X135929714Y-96329714D01*
X135929714Y-96424952D01*
X136596380Y-96901142D02*
X136548761Y-96805904D01*
X136501142Y-96758285D01*
X136405904Y-96710666D01*
X136120190Y-96710666D01*
X136024952Y-96758285D01*
X135977333Y-96805904D01*
X135929714Y-96901142D01*
X135929714Y-97044000D01*
X135977333Y-97139238D01*
X136024952Y-97186857D01*
X136120190Y-97234476D01*
X136405904Y-97234476D01*
X136501142Y-97186857D01*
X136548761Y-97139238D01*
X136596380Y-97044000D01*
X136596380Y-96901142D01*
X135929714Y-98091619D02*
X136739238Y-98091619D01*
X136834476Y-98044000D01*
X136882095Y-97996380D01*
X136929714Y-97901142D01*
X136929714Y-97758285D01*
X136882095Y-97663047D01*
X136548761Y-98091619D02*
X136596380Y-97996380D01*
X136596380Y-97805904D01*
X136548761Y-97710666D01*
X136501142Y-97663047D01*
X136405904Y-97615428D01*
X136120190Y-97615428D01*
X136024952Y-97663047D01*
X135977333Y-97710666D01*
X135929714Y-97805904D01*
X135929714Y-97996380D01*
X135977333Y-98091619D01*
X136596380Y-98567809D02*
X135929714Y-98567809D01*
X136120190Y-98567809D02*
X136024952Y-98615428D01*
X135977333Y-98663047D01*
X135929714Y-98758285D01*
X135929714Y-98853523D01*
X136596380Y-99615428D02*
X136072571Y-99615428D01*
X135977333Y-99567809D01*
X135929714Y-99472571D01*
X135929714Y-99282095D01*
X135977333Y-99186857D01*
X136548761Y-99615428D02*
X136596380Y-99520190D01*
X136596380Y-99282095D01*
X136548761Y-99186857D01*
X136453523Y-99139238D01*
X136358285Y-99139238D01*
X136263047Y-99186857D01*
X136215428Y-99282095D01*
X136215428Y-99520190D01*
X136167809Y-99615428D01*
X136596380Y-100091619D02*
X135929714Y-100091619D01*
X136024952Y-100091619D02*
X135977333Y-100139238D01*
X135929714Y-100234476D01*
X135929714Y-100377333D01*
X135977333Y-100472571D01*
X136072571Y-100520190D01*
X136596380Y-100520190D01*
X136072571Y-100520190D02*
X135977333Y-100567809D01*
X135929714Y-100663047D01*
X135929714Y-100805904D01*
X135977333Y-100901142D01*
X136072571Y-100948761D01*
X136596380Y-100948761D01*
X138136380Y-92503666D02*
X138850666Y-92503666D01*
X138993523Y-92456047D01*
X139088761Y-92360809D01*
X139136380Y-92217952D01*
X139136380Y-92122714D01*
X138231619Y-92932238D02*
X138184000Y-92979857D01*
X138136380Y-93075095D01*
X138136380Y-93313190D01*
X138184000Y-93408428D01*
X138231619Y-93456047D01*
X138326857Y-93503666D01*
X138422095Y-93503666D01*
X138564952Y-93456047D01*
X139136380Y-92884619D01*
X139136380Y-93503666D01*
%TO.C,U4*%
X128436380Y-118451380D02*
X128436380Y-119165666D01*
X128484000Y-119308523D01*
X128579238Y-119403761D01*
X128722095Y-119451380D01*
X128817333Y-119451380D01*
X127817333Y-119451380D02*
X127912571Y-119403761D01*
X127960190Y-119356142D01*
X128007809Y-119260904D01*
X128007809Y-118975190D01*
X127960190Y-118879952D01*
X127912571Y-118832333D01*
X127817333Y-118784714D01*
X127674476Y-118784714D01*
X127579238Y-118832333D01*
X127531619Y-118879952D01*
X127484000Y-118975190D01*
X127484000Y-119260904D01*
X127531619Y-119356142D01*
X127579238Y-119403761D01*
X127674476Y-119451380D01*
X127817333Y-119451380D01*
X127150666Y-118784714D02*
X126912571Y-119451380D01*
X126674476Y-118784714D02*
X126912571Y-119451380D01*
X127007809Y-119689476D01*
X127055428Y-119737095D01*
X127150666Y-119784714D01*
X126341142Y-119403761D02*
X126245904Y-119451380D01*
X126055428Y-119451380D01*
X125960190Y-119403761D01*
X125912571Y-119308523D01*
X125912571Y-119260904D01*
X125960190Y-119165666D01*
X126055428Y-119118047D01*
X126198285Y-119118047D01*
X126293523Y-119070428D01*
X126341142Y-118975190D01*
X126341142Y-118927571D01*
X126293523Y-118832333D01*
X126198285Y-118784714D01*
X126055428Y-118784714D01*
X125960190Y-118832333D01*
X125626857Y-118784714D02*
X125245904Y-118784714D01*
X125484000Y-118451380D02*
X125484000Y-119308523D01*
X125436380Y-119403761D01*
X125341142Y-119451380D01*
X125245904Y-119451380D01*
X124912571Y-119451380D02*
X124912571Y-118784714D01*
X124912571Y-118451380D02*
X124960190Y-118499000D01*
X124912571Y-118546619D01*
X124864952Y-118499000D01*
X124912571Y-118451380D01*
X124912571Y-118546619D01*
X124007809Y-119403761D02*
X124103047Y-119451380D01*
X124293523Y-119451380D01*
X124388761Y-119403761D01*
X124436380Y-119356142D01*
X124484000Y-119260904D01*
X124484000Y-118975190D01*
X124436380Y-118879952D01*
X124388761Y-118832333D01*
X124293523Y-118784714D01*
X124103047Y-118784714D01*
X124007809Y-118832333D01*
X123579238Y-119451380D02*
X123579238Y-118451380D01*
X123484000Y-119070428D02*
X123198285Y-119451380D01*
X123198285Y-118784714D02*
X123579238Y-119165666D01*
%TO.C,D1*%
X118816380Y-99592190D02*
X118816380Y-99116000D01*
X117816380Y-99116000D01*
X118292571Y-99925523D02*
X118292571Y-100258857D01*
X118816380Y-100401714D02*
X118816380Y-99925523D01*
X117816380Y-99925523D01*
X117816380Y-100401714D01*
X118816380Y-100830285D02*
X117816380Y-100830285D01*
X117816380Y-101068380D01*
X117864000Y-101211238D01*
X117959238Y-101306476D01*
X118054476Y-101354095D01*
X118244952Y-101401714D01*
X118387809Y-101401714D01*
X118578285Y-101354095D01*
X118673523Y-101306476D01*
X118768761Y-101211238D01*
X118816380Y-101068380D01*
X118816380Y-100830285D01*
X118911619Y-101592190D02*
X118911619Y-102354095D01*
X118816380Y-103163619D02*
X118340190Y-102830285D01*
X118816380Y-102592190D02*
X117816380Y-102592190D01*
X117816380Y-102973142D01*
X117864000Y-103068380D01*
X117911619Y-103116000D01*
X118006857Y-103163619D01*
X118149714Y-103163619D01*
X118244952Y-103116000D01*
X118292571Y-103068380D01*
X118340190Y-102973142D01*
X118340190Y-102592190D01*
X118721142Y-104163619D02*
X118768761Y-104116000D01*
X118816380Y-103973142D01*
X118816380Y-103877904D01*
X118768761Y-103735047D01*
X118673523Y-103639809D01*
X118578285Y-103592190D01*
X118387809Y-103544571D01*
X118244952Y-103544571D01*
X118054476Y-103592190D01*
X117959238Y-103639809D01*
X117864000Y-103735047D01*
X117816380Y-103877904D01*
X117816380Y-103973142D01*
X117864000Y-104116000D01*
X117911619Y-104163619D01*
X117864000Y-105116000D02*
X117816380Y-105020761D01*
X117816380Y-104877904D01*
X117864000Y-104735047D01*
X117959238Y-104639809D01*
X118054476Y-104592190D01*
X118244952Y-104544571D01*
X118387809Y-104544571D01*
X118578285Y-104592190D01*
X118673523Y-104639809D01*
X118768761Y-104735047D01*
X118816380Y-104877904D01*
X118816380Y-104973142D01*
X118768761Y-105116000D01*
X118721142Y-105163619D01*
X118387809Y-105163619D01*
X118387809Y-104973142D01*
X118292571Y-105925523D02*
X118340190Y-106068380D01*
X118387809Y-106116000D01*
X118483047Y-106163619D01*
X118625904Y-106163619D01*
X118721142Y-106116000D01*
X118768761Y-106068380D01*
X118816380Y-105973142D01*
X118816380Y-105592190D01*
X117816380Y-105592190D01*
X117816380Y-105925523D01*
X117864000Y-106020761D01*
X117911619Y-106068380D01*
X118006857Y-106116000D01*
X118102095Y-106116000D01*
X118197333Y-106068380D01*
X118244952Y-106020761D01*
X118292571Y-105925523D01*
X118292571Y-105592190D01*
X114866380Y-108463904D02*
X113866380Y-108463904D01*
X113866380Y-108702000D01*
X113914000Y-108844857D01*
X114009238Y-108940095D01*
X114104476Y-108987714D01*
X114294952Y-109035333D01*
X114437809Y-109035333D01*
X114628285Y-108987714D01*
X114723523Y-108940095D01*
X114818761Y-108844857D01*
X114866380Y-108702000D01*
X114866380Y-108463904D01*
X114866380Y-109987714D02*
X114866380Y-109416285D01*
X114866380Y-109702000D02*
X113866380Y-109702000D01*
X114009238Y-109606761D01*
X114104476Y-109511523D01*
X114152095Y-109416285D01*
%TO.C,U3*%
X120910333Y-96183761D02*
X120910333Y-96564714D01*
X121138904Y-96107571D02*
X120338904Y-96374238D01*
X121138904Y-96640904D01*
X121138904Y-96907571D02*
X120338904Y-96907571D01*
X120338904Y-97098047D01*
X120377000Y-97212333D01*
X120453190Y-97288523D01*
X120529380Y-97326619D01*
X120681761Y-97364714D01*
X120796047Y-97364714D01*
X120948428Y-97326619D01*
X121024619Y-97288523D01*
X121100809Y-97212333D01*
X121138904Y-97098047D01*
X121138904Y-96907571D01*
X121100809Y-97669476D02*
X121138904Y-97783761D01*
X121138904Y-97974238D01*
X121100809Y-98050428D01*
X121062714Y-98088523D01*
X120986523Y-98126619D01*
X120910333Y-98126619D01*
X120834142Y-98088523D01*
X120796047Y-98050428D01*
X120757952Y-97974238D01*
X120719857Y-97821857D01*
X120681761Y-97745666D01*
X120643666Y-97707571D01*
X120567476Y-97669476D01*
X120491285Y-97669476D01*
X120415095Y-97707571D01*
X120377000Y-97745666D01*
X120338904Y-97821857D01*
X120338904Y-98012333D01*
X120377000Y-98126619D01*
X121138904Y-98888523D02*
X121138904Y-98431380D01*
X121138904Y-98659952D02*
X120338904Y-98659952D01*
X120453190Y-98583761D01*
X120529380Y-98507571D01*
X120567476Y-98431380D01*
X120338904Y-99383761D02*
X120338904Y-99459952D01*
X120377000Y-99536142D01*
X120415095Y-99574238D01*
X120491285Y-99612333D01*
X120643666Y-99650428D01*
X120834142Y-99650428D01*
X120986523Y-99612333D01*
X121062714Y-99574238D01*
X121100809Y-99536142D01*
X121138904Y-99459952D01*
X121138904Y-99383761D01*
X121100809Y-99307571D01*
X121062714Y-99269476D01*
X120986523Y-99231380D01*
X120834142Y-99193285D01*
X120643666Y-99193285D01*
X120491285Y-99231380D01*
X120415095Y-99269476D01*
X120377000Y-99307571D01*
X120338904Y-99383761D01*
X121138904Y-100412333D02*
X121138904Y-99955190D01*
X121138904Y-100183761D02*
X120338904Y-100183761D01*
X120453190Y-100107571D01*
X120529380Y-100031380D01*
X120567476Y-99955190D01*
X120338904Y-101136142D02*
X120338904Y-100755190D01*
X120719857Y-100717095D01*
X120681761Y-100755190D01*
X120643666Y-100831380D01*
X120643666Y-101021857D01*
X120681761Y-101098047D01*
X120719857Y-101136142D01*
X120796047Y-101174238D01*
X120986523Y-101174238D01*
X121062714Y-101136142D01*
X121100809Y-101098047D01*
X121138904Y-101021857D01*
X121138904Y-100831380D01*
X121100809Y-100755190D01*
X121062714Y-100717095D01*
X125044142Y-97461428D02*
X125044142Y-97947142D01*
X125015571Y-98004285D01*
X124987000Y-98032857D01*
X124929857Y-98061428D01*
X124815571Y-98061428D01*
X124758428Y-98032857D01*
X124729857Y-98004285D01*
X124701285Y-97947142D01*
X124701285Y-97461428D01*
X124472714Y-97461428D02*
X124101285Y-97461428D01*
X124301285Y-97690000D01*
X124215571Y-97690000D01*
X124158428Y-97718571D01*
X124129857Y-97747142D01*
X124101285Y-97804285D01*
X124101285Y-97947142D01*
X124129857Y-98004285D01*
X124158428Y-98032857D01*
X124215571Y-98061428D01*
X124387000Y-98061428D01*
X124444142Y-98032857D01*
X124472714Y-98004285D01*
%TO.C,J1*%
X121270780Y-117769190D02*
X122080304Y-117769190D01*
X122175542Y-117816809D01*
X122223161Y-117864428D01*
X122270780Y-117959666D01*
X122270780Y-118150142D01*
X122223161Y-118245380D01*
X122175542Y-118293000D01*
X122080304Y-118340619D01*
X121270780Y-118340619D01*
X122223161Y-118769190D02*
X122270780Y-118912047D01*
X122270780Y-119150142D01*
X122223161Y-119245380D01*
X122175542Y-119293000D01*
X122080304Y-119340619D01*
X121985066Y-119340619D01*
X121889828Y-119293000D01*
X121842209Y-119245380D01*
X121794590Y-119150142D01*
X121746971Y-118959666D01*
X121699352Y-118864428D01*
X121651733Y-118816809D01*
X121556495Y-118769190D01*
X121461257Y-118769190D01*
X121366019Y-118816809D01*
X121318400Y-118864428D01*
X121270780Y-118959666D01*
X121270780Y-119197761D01*
X121318400Y-119340619D01*
X121746971Y-120102523D02*
X121794590Y-120245380D01*
X121842209Y-120293000D01*
X121937447Y-120340619D01*
X122080304Y-120340619D01*
X122175542Y-120293000D01*
X122223161Y-120245380D01*
X122270780Y-120150142D01*
X122270780Y-119769190D01*
X121270780Y-119769190D01*
X121270780Y-120102523D01*
X121318400Y-120197761D01*
X121366019Y-120245380D01*
X121461257Y-120293000D01*
X121556495Y-120293000D01*
X121651733Y-120245380D01*
X121699352Y-120197761D01*
X121746971Y-120102523D01*
X121746971Y-119769190D01*
X122366019Y-120531095D02*
X122366019Y-121293000D01*
X121746971Y-121864428D02*
X121794590Y-122007285D01*
X121842209Y-122054904D01*
X121937447Y-122102523D01*
X122080304Y-122102523D01*
X122175542Y-122054904D01*
X122223161Y-122007285D01*
X122270780Y-121912047D01*
X122270780Y-121531095D01*
X121270780Y-121531095D01*
X121270780Y-121864428D01*
X121318400Y-121959666D01*
X121366019Y-122007285D01*
X121461257Y-122054904D01*
X121556495Y-122054904D01*
X121651733Y-122007285D01*
X121699352Y-121959666D01*
X121746971Y-121864428D01*
X121746971Y-121531095D01*
X122366019Y-122293000D02*
X122366019Y-123054904D01*
X122270780Y-123293000D02*
X121270780Y-123293000D01*
X121985066Y-123626333D01*
X121270780Y-123959666D01*
X122270780Y-123959666D01*
X122270780Y-124435857D02*
X121604114Y-124435857D01*
X121270780Y-124435857D02*
X121318400Y-124388238D01*
X121366019Y-124435857D01*
X121318400Y-124483476D01*
X121270780Y-124435857D01*
X121366019Y-124435857D01*
X121604114Y-124912047D02*
X122270780Y-124912047D01*
X121699352Y-124912047D02*
X121651733Y-124959666D01*
X121604114Y-125054904D01*
X121604114Y-125197761D01*
X121651733Y-125293000D01*
X121746971Y-125340619D01*
X122270780Y-125340619D01*
X122270780Y-125816809D02*
X121604114Y-125816809D01*
X121270780Y-125816809D02*
X121318400Y-125769190D01*
X121366019Y-125816809D01*
X121318400Y-125864428D01*
X121270780Y-125816809D01*
X121366019Y-125816809D01*
%TO.C,C6*%
X131065447Y-92730580D02*
X131636876Y-92730580D01*
X131351161Y-92730580D02*
X131351161Y-91730580D01*
X131446399Y-91873438D01*
X131541638Y-91968676D01*
X131636876Y-92016295D01*
X130446399Y-91730580D02*
X130351161Y-91730580D01*
X130255923Y-91778200D01*
X130208304Y-91825819D01*
X130160685Y-91921057D01*
X130113066Y-92111533D01*
X130113066Y-92349628D01*
X130160685Y-92540104D01*
X130208304Y-92635342D01*
X130255923Y-92682961D01*
X130351161Y-92730580D01*
X130446399Y-92730580D01*
X130541638Y-92682961D01*
X130589257Y-92635342D01*
X130636876Y-92540104D01*
X130684495Y-92349628D01*
X130684495Y-92111533D01*
X130636876Y-91921057D01*
X130589257Y-91825819D01*
X130541638Y-91778200D01*
X130446399Y-91730580D01*
X129494019Y-91730580D02*
X129398780Y-91730580D01*
X129303542Y-91778200D01*
X129255923Y-91825819D01*
X129208304Y-91921057D01*
X129160685Y-92111533D01*
X129160685Y-92349628D01*
X129208304Y-92540104D01*
X129255923Y-92635342D01*
X129303542Y-92682961D01*
X129398780Y-92730580D01*
X129494019Y-92730580D01*
X129589257Y-92682961D01*
X129636876Y-92635342D01*
X129684495Y-92540104D01*
X129732114Y-92349628D01*
X129732114Y-92111533D01*
X129684495Y-91921057D01*
X129636876Y-91825819D01*
X129589257Y-91778200D01*
X129494019Y-91730580D01*
X128732114Y-92063914D02*
X128732114Y-92730580D01*
X128732114Y-92159152D02*
X128684495Y-92111533D01*
X128589257Y-92063914D01*
X128446399Y-92063914D01*
X128351161Y-92111533D01*
X128303542Y-92206771D01*
X128303542Y-92730580D01*
D13*
X126448333Y-93015571D02*
X126472142Y-93039380D01*
X126543571Y-93063190D01*
X126591190Y-93063190D01*
X126662619Y-93039380D01*
X126710238Y-92991761D01*
X126734047Y-92944142D01*
X126757857Y-92848904D01*
X126757857Y-92777476D01*
X126734047Y-92682238D01*
X126710238Y-92634619D01*
X126662619Y-92587000D01*
X126591190Y-92563190D01*
X126543571Y-92563190D01*
X126472142Y-92587000D01*
X126448333Y-92610809D01*
X126019761Y-92563190D02*
X126115000Y-92563190D01*
X126162619Y-92587000D01*
X126186428Y-92610809D01*
X126234047Y-92682238D01*
X126257857Y-92777476D01*
X126257857Y-92967952D01*
X126234047Y-93015571D01*
X126210238Y-93039380D01*
X126162619Y-93063190D01*
X126067380Y-93063190D01*
X126019761Y-93039380D01*
X125995952Y-93015571D01*
X125972142Y-92967952D01*
X125972142Y-92848904D01*
X125995952Y-92801285D01*
X126019761Y-92777476D01*
X126067380Y-92753666D01*
X126162619Y-92753666D01*
X126210238Y-92777476D01*
X126234047Y-92801285D01*
X126257857Y-92848904D01*
%TO.C,R10*%
D12*
X123677276Y-90114380D02*
X124248704Y-90114380D01*
X123962990Y-90114380D02*
X123962990Y-89114380D01*
X124058228Y-89257238D01*
X124153466Y-89352476D01*
X124248704Y-89400095D01*
X123058228Y-89114380D02*
X122962990Y-89114380D01*
X122867752Y-89162000D01*
X122820133Y-89209619D01*
X122772514Y-89304857D01*
X122724895Y-89495333D01*
X122724895Y-89733428D01*
X122772514Y-89923904D01*
X122820133Y-90019142D01*
X122867752Y-90066761D01*
X122962990Y-90114380D01*
X123058228Y-90114380D01*
X123153466Y-90066761D01*
X123201085Y-90019142D01*
X123248704Y-89923904D01*
X123296323Y-89733428D01*
X123296323Y-89495333D01*
X123248704Y-89304857D01*
X123201085Y-89209619D01*
X123153466Y-89162000D01*
X123058228Y-89114380D01*
X122296323Y-90114380D02*
X122296323Y-89114380D01*
X121724895Y-90114380D02*
X122153466Y-89542952D01*
X121724895Y-89114380D02*
X122296323Y-89685809D01*
D13*
X125797428Y-95095190D02*
X125964095Y-94857095D01*
X126083142Y-95095190D02*
X126083142Y-94595190D01*
X125892666Y-94595190D01*
X125845047Y-94619000D01*
X125821238Y-94642809D01*
X125797428Y-94690428D01*
X125797428Y-94761857D01*
X125821238Y-94809476D01*
X125845047Y-94833285D01*
X125892666Y-94857095D01*
X126083142Y-94857095D01*
X125321238Y-95095190D02*
X125606952Y-95095190D01*
X125464095Y-95095190D02*
X125464095Y-94595190D01*
X125511714Y-94666619D01*
X125559333Y-94714238D01*
X125606952Y-94738047D01*
X125011714Y-94595190D02*
X124964095Y-94595190D01*
X124916476Y-94619000D01*
X124892666Y-94642809D01*
X124868857Y-94690428D01*
X124845047Y-94785666D01*
X124845047Y-94904714D01*
X124868857Y-94999952D01*
X124892666Y-95047571D01*
X124916476Y-95071380D01*
X124964095Y-95095190D01*
X125011714Y-95095190D01*
X125059333Y-95071380D01*
X125083142Y-95047571D01*
X125106952Y-94999952D01*
X125130761Y-94904714D01*
X125130761Y-94785666D01*
X125106952Y-94690428D01*
X125083142Y-94642809D01*
X125059333Y-94619000D01*
X125011714Y-94595190D01*
%TO.C,V2*%
D12*
X132949904Y-96698047D02*
X132949904Y-96317095D01*
X132149904Y-96317095D01*
X132949904Y-96964714D02*
X132149904Y-96964714D01*
X132149904Y-97155190D01*
X132188000Y-97269476D01*
X132264190Y-97345666D01*
X132340380Y-97383761D01*
X132492761Y-97421857D01*
X132607047Y-97421857D01*
X132759428Y-97383761D01*
X132835619Y-97345666D01*
X132911809Y-97269476D01*
X132949904Y-97155190D01*
X132949904Y-96964714D01*
X132149904Y-97917095D02*
X132149904Y-98069476D01*
X132188000Y-98145666D01*
X132264190Y-98221857D01*
X132416571Y-98259952D01*
X132683238Y-98259952D01*
X132835619Y-98221857D01*
X132911809Y-98145666D01*
X132949904Y-98069476D01*
X132949904Y-97917095D01*
X132911809Y-97840904D01*
X132835619Y-97764714D01*
X132683238Y-97726619D01*
X132416571Y-97726619D01*
X132264190Y-97764714D01*
X132188000Y-97840904D01*
X132149904Y-97917095D01*
X133026095Y-98412333D02*
X133026095Y-99021857D01*
X132226095Y-99174238D02*
X132188000Y-99212333D01*
X132149904Y-99288523D01*
X132149904Y-99479000D01*
X132188000Y-99555190D01*
X132226095Y-99593285D01*
X132302285Y-99631380D01*
X132378476Y-99631380D01*
X132492761Y-99593285D01*
X132949904Y-99136142D01*
X132949904Y-99631380D01*
X132149904Y-99859952D02*
X132949904Y-100126619D01*
X132149904Y-100393285D01*
X132492761Y-100774238D02*
X132454666Y-100698047D01*
X132416571Y-100659952D01*
X132340380Y-100621857D01*
X132302285Y-100621857D01*
X132226095Y-100659952D01*
X132188000Y-100698047D01*
X132149904Y-100774238D01*
X132149904Y-100926619D01*
X132188000Y-101002809D01*
X132226095Y-101040904D01*
X132302285Y-101079000D01*
X132340380Y-101079000D01*
X132416571Y-101040904D01*
X132454666Y-101002809D01*
X132492761Y-100926619D01*
X132492761Y-100774238D01*
X132530857Y-100698047D01*
X132568952Y-100659952D01*
X132645142Y-100621857D01*
X132797523Y-100621857D01*
X132873714Y-100659952D01*
X132911809Y-100698047D01*
X132949904Y-100774238D01*
X132949904Y-100926619D01*
X132911809Y-101002809D01*
X132873714Y-101040904D01*
X132797523Y-101079000D01*
X132645142Y-101079000D01*
X132568952Y-101040904D01*
X132530857Y-101002809D01*
X132492761Y-100926619D01*
D14*
X130028190Y-97004238D02*
X130528190Y-97170904D01*
X130028190Y-97337571D01*
X130075809Y-97480428D02*
X130052000Y-97504238D01*
X130028190Y-97551857D01*
X130028190Y-97670904D01*
X130052000Y-97718523D01*
X130075809Y-97742333D01*
X130123428Y-97766142D01*
X130171047Y-97766142D01*
X130242476Y-97742333D01*
X130528190Y-97456619D01*
X130528190Y-97766142D01*
%TO.C,J3*%
D12*
X135088380Y-85511047D02*
X135088380Y-86082476D01*
X136088380Y-85796761D02*
X135088380Y-85796761D01*
X135564571Y-86749142D02*
X135564571Y-86415809D01*
X136088380Y-86415809D02*
X135088380Y-86415809D01*
X135088380Y-86892000D01*
X135088380Y-87130095D02*
X135088380Y-87701523D01*
X136088380Y-87415809D02*
X135088380Y-87415809D01*
X136183619Y-87796761D02*
X136183619Y-88558666D01*
X136088380Y-89272952D02*
X136088380Y-88796761D01*
X135088380Y-88796761D01*
X135993142Y-90177714D02*
X136040761Y-90130095D01*
X136088380Y-89987238D01*
X136088380Y-89892000D01*
X136040761Y-89749142D01*
X135945523Y-89653904D01*
X135850285Y-89606285D01*
X135659809Y-89558666D01*
X135516952Y-89558666D01*
X135326476Y-89606285D01*
X135231238Y-89653904D01*
X135136000Y-89749142D01*
X135088380Y-89892000D01*
X135088380Y-89987238D01*
X135136000Y-90130095D01*
X135183619Y-90177714D01*
X136088380Y-90606285D02*
X135088380Y-90606285D01*
X135088380Y-90844380D01*
X135136000Y-90987238D01*
X135231238Y-91082476D01*
X135326476Y-91130095D01*
X135516952Y-91177714D01*
X135659809Y-91177714D01*
X135850285Y-91130095D01*
X135945523Y-91082476D01*
X136040761Y-90987238D01*
X136088380Y-90844380D01*
X136088380Y-90606285D01*
%TO.C,BT1*%
X134319638Y-122016780D02*
X134795828Y-122016780D01*
X134795828Y-121016780D01*
X133986304Y-122016780D02*
X133986304Y-121350114D01*
X133986304Y-121016780D02*
X134033923Y-121064400D01*
X133986304Y-121112019D01*
X133938685Y-121064400D01*
X133986304Y-121016780D01*
X133986304Y-121112019D01*
X133510114Y-122016780D02*
X133510114Y-121016780D01*
X133129161Y-121016780D01*
X133033923Y-121064400D01*
X132986304Y-121112019D01*
X132938685Y-121207257D01*
X132938685Y-121350114D01*
X132986304Y-121445352D01*
X133033923Y-121492971D01*
X133129161Y-121540590D01*
X133510114Y-121540590D01*
X132367257Y-122016780D02*
X132462495Y-121969161D01*
X132510114Y-121921542D01*
X132557733Y-121826304D01*
X132557733Y-121540590D01*
X132510114Y-121445352D01*
X132462495Y-121397733D01*
X132367257Y-121350114D01*
X132224400Y-121350114D01*
X132129161Y-121397733D01*
X132081542Y-121445352D01*
X132033923Y-121540590D01*
X132033923Y-121826304D01*
X132081542Y-121921542D01*
X132129161Y-121969161D01*
X132224400Y-122016780D01*
X132367257Y-122016780D01*
X130938685Y-121016780D02*
X130319638Y-121016780D01*
X130652971Y-121397733D01*
X130510114Y-121397733D01*
X130414876Y-121445352D01*
X130367257Y-121492971D01*
X130319638Y-121588209D01*
X130319638Y-121826304D01*
X130367257Y-121921542D01*
X130414876Y-121969161D01*
X130510114Y-122016780D01*
X130795828Y-122016780D01*
X130891066Y-121969161D01*
X130938685Y-121921542D01*
X129986304Y-121350114D02*
X129748209Y-122016780D01*
X129510114Y-121350114D01*
X129224400Y-121016780D02*
X128557733Y-121016780D01*
X128986304Y-122016780D01*
X135786714Y-124007571D02*
X135643857Y-124055190D01*
X135596238Y-124102809D01*
X135548619Y-124198047D01*
X135548619Y-124340904D01*
X135596238Y-124436142D01*
X135643857Y-124483761D01*
X135739095Y-124531380D01*
X136120047Y-124531380D01*
X136120047Y-123531380D01*
X135786714Y-123531380D01*
X135691476Y-123579000D01*
X135643857Y-123626619D01*
X135596238Y-123721857D01*
X135596238Y-123817095D01*
X135643857Y-123912333D01*
X135691476Y-123959952D01*
X135786714Y-124007571D01*
X136120047Y-124007571D01*
X135262904Y-123531380D02*
X134691476Y-123531380D01*
X134977190Y-124531380D02*
X134977190Y-123531380D01*
X133834333Y-124531380D02*
X134405761Y-124531380D01*
X134120047Y-124531380D02*
X134120047Y-123531380D01*
X134215285Y-123674238D01*
X134310523Y-123769476D01*
X134405761Y-123817095D01*
%TO.C,R9*%
X119486276Y-96413580D02*
X120057704Y-96413580D01*
X119771990Y-96413580D02*
X119771990Y-95413580D01*
X119867228Y-95556438D01*
X119962466Y-95651676D01*
X120057704Y-95699295D01*
X118867228Y-95413580D02*
X118771990Y-95413580D01*
X118676752Y-95461200D01*
X118629133Y-95508819D01*
X118581514Y-95604057D01*
X118533895Y-95794533D01*
X118533895Y-96032628D01*
X118581514Y-96223104D01*
X118629133Y-96318342D01*
X118676752Y-96365961D01*
X118771990Y-96413580D01*
X118867228Y-96413580D01*
X118962466Y-96365961D01*
X119010085Y-96318342D01*
X119057704Y-96223104D01*
X119105323Y-96032628D01*
X119105323Y-95794533D01*
X119057704Y-95604057D01*
X119010085Y-95508819D01*
X118962466Y-95461200D01*
X118867228Y-95413580D01*
X118105323Y-96413580D02*
X118105323Y-95413580D01*
X117533895Y-96413580D02*
X117962466Y-95842152D01*
X117533895Y-95413580D02*
X118105323Y-95985009D01*
D13*
X122003333Y-95095190D02*
X122170000Y-94857095D01*
X122289047Y-95095190D02*
X122289047Y-94595190D01*
X122098571Y-94595190D01*
X122050952Y-94619000D01*
X122027142Y-94642809D01*
X122003333Y-94690428D01*
X122003333Y-94761857D01*
X122027142Y-94809476D01*
X122050952Y-94833285D01*
X122098571Y-94857095D01*
X122289047Y-94857095D01*
X121765238Y-95095190D02*
X121670000Y-95095190D01*
X121622380Y-95071380D01*
X121598571Y-95047571D01*
X121550952Y-94976142D01*
X121527142Y-94880904D01*
X121527142Y-94690428D01*
X121550952Y-94642809D01*
X121574761Y-94619000D01*
X121622380Y-94595190D01*
X121717619Y-94595190D01*
X121765238Y-94619000D01*
X121789047Y-94642809D01*
X121812857Y-94690428D01*
X121812857Y-94809476D01*
X121789047Y-94857095D01*
X121765238Y-94880904D01*
X121717619Y-94904714D01*
X121622380Y-94904714D01*
X121574761Y-94880904D01*
X121550952Y-94857095D01*
X121527142Y-94809476D01*
%TO.C,R11*%
D12*
X133151476Y-94305380D02*
X133722904Y-94305380D01*
X133437190Y-94305380D02*
X133437190Y-93305380D01*
X133532428Y-93448238D01*
X133627666Y-93543476D01*
X133722904Y-93591095D01*
X132532428Y-93305380D02*
X132437190Y-93305380D01*
X132341952Y-93353000D01*
X132294333Y-93400619D01*
X132246714Y-93495857D01*
X132199095Y-93686333D01*
X132199095Y-93924428D01*
X132246714Y-94114904D01*
X132294333Y-94210142D01*
X132341952Y-94257761D01*
X132437190Y-94305380D01*
X132532428Y-94305380D01*
X132627666Y-94257761D01*
X132675285Y-94210142D01*
X132722904Y-94114904D01*
X132770523Y-93924428D01*
X132770523Y-93686333D01*
X132722904Y-93495857D01*
X132675285Y-93400619D01*
X132627666Y-93353000D01*
X132532428Y-93305380D01*
X131770523Y-94305380D02*
X131770523Y-93305380D01*
X131199095Y-94305380D02*
X131627666Y-93733952D01*
X131199095Y-93305380D02*
X131770523Y-93876809D01*
D13*
X129353428Y-95095190D02*
X129520095Y-94857095D01*
X129639142Y-95095190D02*
X129639142Y-94595190D01*
X129448666Y-94595190D01*
X129401047Y-94619000D01*
X129377238Y-94642809D01*
X129353428Y-94690428D01*
X129353428Y-94761857D01*
X129377238Y-94809476D01*
X129401047Y-94833285D01*
X129448666Y-94857095D01*
X129639142Y-94857095D01*
X128877238Y-95095190D02*
X129162952Y-95095190D01*
X129020095Y-95095190D02*
X129020095Y-94595190D01*
X129067714Y-94666619D01*
X129115333Y-94714238D01*
X129162952Y-94738047D01*
X128401047Y-95095190D02*
X128686761Y-95095190D01*
X128543904Y-95095190D02*
X128543904Y-94595190D01*
X128591523Y-94666619D01*
X128639142Y-94714238D01*
X128686761Y-94738047D01*
%TO.C,C9*%
D12*
X120372047Y-93416380D02*
X120943476Y-93416380D01*
X120657761Y-93416380D02*
X120657761Y-92416380D01*
X120752999Y-92559238D01*
X120848238Y-92654476D01*
X120943476Y-92702095D01*
X119752999Y-92416380D02*
X119657761Y-92416380D01*
X119562523Y-92464000D01*
X119514904Y-92511619D01*
X119467285Y-92606857D01*
X119419666Y-92797333D01*
X119419666Y-93035428D01*
X119467285Y-93225904D01*
X119514904Y-93321142D01*
X119562523Y-93368761D01*
X119657761Y-93416380D01*
X119752999Y-93416380D01*
X119848238Y-93368761D01*
X119895857Y-93321142D01*
X119943476Y-93225904D01*
X119991095Y-93035428D01*
X119991095Y-92797333D01*
X119943476Y-92606857D01*
X119895857Y-92511619D01*
X119848238Y-92464000D01*
X119752999Y-92416380D01*
X118800619Y-92416380D02*
X118705380Y-92416380D01*
X118610142Y-92464000D01*
X118562523Y-92511619D01*
X118514904Y-92606857D01*
X118467285Y-92797333D01*
X118467285Y-93035428D01*
X118514904Y-93225904D01*
X118562523Y-93321142D01*
X118610142Y-93368761D01*
X118705380Y-93416380D01*
X118800619Y-93416380D01*
X118895857Y-93368761D01*
X118943476Y-93321142D01*
X118991095Y-93225904D01*
X119038714Y-93035428D01*
X119038714Y-92797333D01*
X118991095Y-92606857D01*
X118943476Y-92511619D01*
X118895857Y-92464000D01*
X118800619Y-92416380D01*
X118038714Y-92749714D02*
X118038714Y-93416380D01*
X118038714Y-92844952D02*
X117991095Y-92797333D01*
X117895857Y-92749714D01*
X117752999Y-92749714D01*
X117657761Y-92797333D01*
X117610142Y-92892571D01*
X117610142Y-93416380D01*
D13*
X122943133Y-93015571D02*
X122966942Y-93039380D01*
X123038371Y-93063190D01*
X123085990Y-93063190D01*
X123157419Y-93039380D01*
X123205038Y-92991761D01*
X123228847Y-92944142D01*
X123252657Y-92848904D01*
X123252657Y-92777476D01*
X123228847Y-92682238D01*
X123205038Y-92634619D01*
X123157419Y-92587000D01*
X123085990Y-92563190D01*
X123038371Y-92563190D01*
X122966942Y-92587000D01*
X122943133Y-92610809D01*
X122705038Y-93063190D02*
X122609800Y-93063190D01*
X122562180Y-93039380D01*
X122538371Y-93015571D01*
X122490752Y-92944142D01*
X122466942Y-92848904D01*
X122466942Y-92658428D01*
X122490752Y-92610809D01*
X122514561Y-92587000D01*
X122562180Y-92563190D01*
X122657419Y-92563190D01*
X122705038Y-92587000D01*
X122728847Y-92610809D01*
X122752657Y-92658428D01*
X122752657Y-92777476D01*
X122728847Y-92825095D01*
X122705038Y-92848904D01*
X122657419Y-92872714D01*
X122562180Y-92872714D01*
X122514561Y-92848904D01*
X122490752Y-92825095D01*
X122466942Y-92777476D01*
%TD*%
M02*
