M48
; DRILL file {KiCad (5.1.7)-1} date 09/18/21 16:16:13
; FORMAT={-:-/ absolute / metric / decimal}
; #@! TF.CreationDate,2021-09-18T16:16:13+01:00
; #@! TF.GenerationSoftware,Kicad,Pcbnew,(5.1.7)-1
; #@! TF.FileFunction,Plated,1,2,PTH
FMAT,2
METRIC
T1C0.400
T2C0.500
T3C0.600
T4C0.700
T5C0.800
T6C0.900
%
G90
G05
T1
X136.804Y-116.129
X138.633Y-117.45
T2
X115.57Y-105.029
X116.459Y-89.154
X116.459Y-91.313
X117.094Y-95.25
X117.094Y-98.298
X117.094Y-92.837
X117.475Y-105.029
X119.38Y-99.695
X121.412Y-101.6
X123.393Y-121.666
X132.08Y-120.294
X133.223Y-98.933
X133.223Y-96.393
X133.706Y-120.396
X134.494Y-101.103
X136.144Y-85.344
X136.271Y-98.996
X138.532Y-105.893
X139.878Y-106.909
T5
X118.364Y-107.442
X118.364Y-108.712
X118.364Y-109.982
X118.364Y-111.252
T6
X138.684Y-86.487
X138.684Y-89.027
X138.684Y-91.567
X138.684Y-94.107
X138.684Y-96.647
X138.684Y-99.187
X133.731Y-124.079
X136.271Y-124.079
T1
G00X125.021Y-101.236
M15
G01X125.421Y-101.236
M16
G05
G00X127.561Y-101.236
M15
G01X127.961Y-101.236
M16
G05
G00X130.101Y-101.236
M15
G01X130.501Y-101.236
M16
G05
G00X136.761Y-107.896
M15
G01X136.761Y-107.496
M16
G05
G00X136.761Y-110.436
M15
G01X136.761Y-110.036
M16
G05
G00X136.761Y-112.976
M15
G01X136.761Y-112.576
M16
G05
T2
G00X121.011Y-104.896
M15
G01X121.011Y-104.076
M16
G05
G00X121.011Y-116.396
M15
G01X121.011Y-115.576
M16
G05
G00X134.511Y-104.896
M15
G01X134.511Y-104.076
M16
G05
G00X134.511Y-116.396
M15
G01X134.511Y-115.576
M16
G05
T3
G00X119.018Y-118.077
M15
G01X119.018Y-117.477
M16
G05
G00X119.018Y-124.102
M15
G01X119.018Y-123.452
M16
G05
T4
G00X115.993Y-117.277
M15
G01X117.043Y-117.277
M16
G05
G00X115.993Y-124.277
M15
G01X117.043Y-124.277
M16
G05
T0
M30
