%TF.GenerationSoftware,KiCad,Pcbnew,(5.1.7)-1*%
%TF.CreationDate,2021-09-18T16:18:18+01:00*%
%TF.ProjectId,RcCtlHw,52634374-6c48-4772-9e6b-696361645f70,rev?*%
%TF.SameCoordinates,Original*%
%TF.FileFunction,Paste,Top*%
%TF.FilePolarity,Positive*%
%FSLAX46Y46*%
G04 Gerber Fmt 4.6, Leading zero omitted, Abs format (unit mm)*
G04 Created by KiCad (PCBNEW (5.1.7)-1) date 2021-09-18 16:18:18*
%MOMM*%
%LPD*%
G01*
G04 APERTURE LIST*
%TA.AperFunction,Profile*%
%ADD10C,0.050000*%
%TD*%
%ADD11R,2.000000X0.900000*%
%ADD12R,1.200000X2.200000*%
%ADD13R,2.750000X3.050000*%
G04 APERTURE END LIST*
D10*
X114300000Y-84455000D02*
X140970000Y-84455000D01*
X140970000Y-84455000D02*
X140970000Y-84836000D01*
X114300000Y-84709000D02*
X114300000Y-84455000D01*
X140970000Y-126365000D02*
X140970000Y-119380000D01*
X114300000Y-126365000D02*
X140970000Y-126365000D01*
X114300000Y-119380000D02*
X114300000Y-126365000D01*
X114300000Y-119380000D02*
X114300000Y-84709000D01*
X140970000Y-84836000D02*
X140970000Y-119380000D01*
D11*
%TO.C,U2*%
X131305000Y-86092001D03*
X131305000Y-87616001D03*
X131305000Y-89140001D03*
X131305000Y-90664001D03*
X131305000Y-92188001D03*
X131305000Y-93712001D03*
X131305000Y-95236001D03*
X131305000Y-96760001D03*
X131305000Y-98284001D03*
X118986000Y-89140001D03*
X118986000Y-90664001D03*
X118986000Y-92188001D03*
X118986000Y-93712001D03*
X118986000Y-95236001D03*
X118986000Y-96760001D03*
X118986000Y-98284001D03*
%TD*%
%TO.C,R3*%
G36*
G01*
X119526000Y-113734002D02*
X119526000Y-112833998D01*
G75*
G02*
X119775998Y-112584000I249998J0D01*
G01*
X120301002Y-112584000D01*
G75*
G02*
X120551000Y-112833998I0J-249998D01*
G01*
X120551000Y-113734002D01*
G75*
G02*
X120301002Y-113984000I-249998J0D01*
G01*
X119775998Y-113984000D01*
G75*
G02*
X119526000Y-113734002I0J249998D01*
G01*
G37*
G36*
G01*
X117701000Y-113734002D02*
X117701000Y-112833998D01*
G75*
G02*
X117950998Y-112584000I249998J0D01*
G01*
X118476002Y-112584000D01*
G75*
G02*
X118726000Y-112833998I0J-249998D01*
G01*
X118726000Y-113734002D01*
G75*
G02*
X118476002Y-113984000I-249998J0D01*
G01*
X117950998Y-113984000D01*
G75*
G02*
X117701000Y-113734002I0J249998D01*
G01*
G37*
%TD*%
%TO.C,C1*%
G36*
G01*
X131752000Y-103157000D02*
X131752000Y-104107000D01*
G75*
G02*
X131502000Y-104357000I-250000J0D01*
G01*
X131002000Y-104357000D01*
G75*
G02*
X130752000Y-104107000I0J250000D01*
G01*
X130752000Y-103157000D01*
G75*
G02*
X131002000Y-102907000I250000J0D01*
G01*
X131502000Y-102907000D01*
G75*
G02*
X131752000Y-103157000I0J-250000D01*
G01*
G37*
G36*
G01*
X129852000Y-103157000D02*
X129852000Y-104107000D01*
G75*
G02*
X129602000Y-104357000I-250000J0D01*
G01*
X129102000Y-104357000D01*
G75*
G02*
X128852000Y-104107000I0J250000D01*
G01*
X128852000Y-103157000D01*
G75*
G02*
X129102000Y-102907000I250000J0D01*
G01*
X129602000Y-102907000D01*
G75*
G02*
X129852000Y-103157000I0J-250000D01*
G01*
G37*
%TD*%
%TO.C,C2*%
G36*
G01*
X123772000Y-104107000D02*
X123772000Y-103157000D01*
G75*
G02*
X124022000Y-102907000I250000J0D01*
G01*
X124522000Y-102907000D01*
G75*
G02*
X124772000Y-103157000I0J-250000D01*
G01*
X124772000Y-104107000D01*
G75*
G02*
X124522000Y-104357000I-250000J0D01*
G01*
X124022000Y-104357000D01*
G75*
G02*
X123772000Y-104107000I0J250000D01*
G01*
G37*
G36*
G01*
X125672000Y-104107000D02*
X125672000Y-103157000D01*
G75*
G02*
X125922000Y-102907000I250000J0D01*
G01*
X126422000Y-102907000D01*
G75*
G02*
X126672000Y-103157000I0J-250000D01*
G01*
X126672000Y-104107000D01*
G75*
G02*
X126422000Y-104357000I-250000J0D01*
G01*
X125922000Y-104357000D01*
G75*
G02*
X125672000Y-104107000I0J250000D01*
G01*
G37*
%TD*%
%TO.C,R2*%
G36*
G01*
X130829000Y-110842999D02*
X130829000Y-113693001D01*
G75*
G02*
X130579001Y-113943000I-249999J0D01*
G01*
X129853999Y-113943000D01*
G75*
G02*
X129604000Y-113693001I0J249999D01*
G01*
X129604000Y-110842999D01*
G75*
G02*
X129853999Y-110593000I249999J0D01*
G01*
X130579001Y-110593000D01*
G75*
G02*
X130829000Y-110842999I0J-249999D01*
G01*
G37*
G36*
G01*
X124904000Y-110842999D02*
X124904000Y-113693001D01*
G75*
G02*
X124654001Y-113943000I-249999J0D01*
G01*
X123928999Y-113943000D01*
G75*
G02*
X123679000Y-113693001I0J249999D01*
G01*
X123679000Y-110842999D01*
G75*
G02*
X123928999Y-110593000I249999J0D01*
G01*
X124654001Y-110593000D01*
G75*
G02*
X124904000Y-110842999I0J-249999D01*
G01*
G37*
%TD*%
%TO.C,R6*%
G36*
G01*
X117405998Y-87014000D02*
X118306002Y-87014000D01*
G75*
G02*
X118556000Y-87263998I0J-249998D01*
G01*
X118556000Y-87789002D01*
G75*
G02*
X118306002Y-88039000I-249998J0D01*
G01*
X117405998Y-88039000D01*
G75*
G02*
X117156000Y-87789002I0J249998D01*
G01*
X117156000Y-87263998D01*
G75*
G02*
X117405998Y-87014000I249998J0D01*
G01*
G37*
G36*
G01*
X117405998Y-85189000D02*
X118306002Y-85189000D01*
G75*
G02*
X118556000Y-85438998I0J-249998D01*
G01*
X118556000Y-85964002D01*
G75*
G02*
X118306002Y-86214000I-249998J0D01*
G01*
X117405998Y-86214000D01*
G75*
G02*
X117156000Y-85964002I0J249998D01*
G01*
X117156000Y-85438998D01*
G75*
G02*
X117405998Y-85189000I249998J0D01*
G01*
G37*
%TD*%
%TO.C,C4*%
G36*
G01*
X138340800Y-121191000D02*
X138340800Y-122141000D01*
G75*
G02*
X138090800Y-122391000I-250000J0D01*
G01*
X137590800Y-122391000D01*
G75*
G02*
X137340800Y-122141000I0J250000D01*
G01*
X137340800Y-121191000D01*
G75*
G02*
X137590800Y-120941000I250000J0D01*
G01*
X138090800Y-120941000D01*
G75*
G02*
X138340800Y-121191000I0J-250000D01*
G01*
G37*
G36*
G01*
X136440800Y-121191000D02*
X136440800Y-122141000D01*
G75*
G02*
X136190800Y-122391000I-250000J0D01*
G01*
X135690800Y-122391000D01*
G75*
G02*
X135440800Y-122141000I0J250000D01*
G01*
X135440800Y-121191000D01*
G75*
G02*
X135690800Y-120941000I250000J0D01*
G01*
X136190800Y-120941000D01*
G75*
G02*
X136440800Y-121191000I0J-250000D01*
G01*
G37*
%TD*%
%TO.C,R1*%
G36*
G01*
X131629998Y-105890000D02*
X132530002Y-105890000D01*
G75*
G02*
X132780000Y-106139998I0J-249998D01*
G01*
X132780000Y-106665002D01*
G75*
G02*
X132530002Y-106915000I-249998J0D01*
G01*
X131629998Y-106915000D01*
G75*
G02*
X131380000Y-106665002I0J249998D01*
G01*
X131380000Y-106139998D01*
G75*
G02*
X131629998Y-105890000I249998J0D01*
G01*
G37*
G36*
G01*
X131629998Y-107715000D02*
X132530002Y-107715000D01*
G75*
G02*
X132780000Y-107964998I0J-249998D01*
G01*
X132780000Y-108490002D01*
G75*
G02*
X132530002Y-108740000I-249998J0D01*
G01*
X131629998Y-108740000D01*
G75*
G02*
X131380000Y-108490002I0J249998D01*
G01*
X131380000Y-107964998D01*
G75*
G02*
X131629998Y-107715000I249998J0D01*
G01*
G37*
%TD*%
%TO.C,U1*%
G36*
G01*
X130704000Y-109197000D02*
X130704000Y-109497000D01*
G75*
G02*
X130554000Y-109647000I-150000J0D01*
G01*
X129204000Y-109647000D01*
G75*
G02*
X129054000Y-109497000I0J150000D01*
G01*
X129054000Y-109197000D01*
G75*
G02*
X129204000Y-109047000I150000J0D01*
G01*
X130554000Y-109047000D01*
G75*
G02*
X130704000Y-109197000I0J-150000D01*
G01*
G37*
G36*
G01*
X130704000Y-107927000D02*
X130704000Y-108227000D01*
G75*
G02*
X130554000Y-108377000I-150000J0D01*
G01*
X129204000Y-108377000D01*
G75*
G02*
X129054000Y-108227000I0J150000D01*
G01*
X129054000Y-107927000D01*
G75*
G02*
X129204000Y-107777000I150000J0D01*
G01*
X130554000Y-107777000D01*
G75*
G02*
X130704000Y-107927000I0J-150000D01*
G01*
G37*
G36*
G01*
X130704000Y-106657000D02*
X130704000Y-106957000D01*
G75*
G02*
X130554000Y-107107000I-150000J0D01*
G01*
X129204000Y-107107000D01*
G75*
G02*
X129054000Y-106957000I0J150000D01*
G01*
X129054000Y-106657000D01*
G75*
G02*
X129204000Y-106507000I150000J0D01*
G01*
X130554000Y-106507000D01*
G75*
G02*
X130704000Y-106657000I0J-150000D01*
G01*
G37*
G36*
G01*
X130704000Y-105387000D02*
X130704000Y-105687000D01*
G75*
G02*
X130554000Y-105837000I-150000J0D01*
G01*
X129204000Y-105837000D01*
G75*
G02*
X129054000Y-105687000I0J150000D01*
G01*
X129054000Y-105387000D01*
G75*
G02*
X129204000Y-105237000I150000J0D01*
G01*
X130554000Y-105237000D01*
G75*
G02*
X130704000Y-105387000I0J-150000D01*
G01*
G37*
G36*
G01*
X125454000Y-105387000D02*
X125454000Y-105687000D01*
G75*
G02*
X125304000Y-105837000I-150000J0D01*
G01*
X123954000Y-105837000D01*
G75*
G02*
X123804000Y-105687000I0J150000D01*
G01*
X123804000Y-105387000D01*
G75*
G02*
X123954000Y-105237000I150000J0D01*
G01*
X125304000Y-105237000D01*
G75*
G02*
X125454000Y-105387000I0J-150000D01*
G01*
G37*
G36*
G01*
X125454000Y-106657000D02*
X125454000Y-106957000D01*
G75*
G02*
X125304000Y-107107000I-150000J0D01*
G01*
X123954000Y-107107000D01*
G75*
G02*
X123804000Y-106957000I0J150000D01*
G01*
X123804000Y-106657000D01*
G75*
G02*
X123954000Y-106507000I150000J0D01*
G01*
X125304000Y-106507000D01*
G75*
G02*
X125454000Y-106657000I0J-150000D01*
G01*
G37*
G36*
G01*
X125454000Y-107927000D02*
X125454000Y-108227000D01*
G75*
G02*
X125304000Y-108377000I-150000J0D01*
G01*
X123954000Y-108377000D01*
G75*
G02*
X123804000Y-108227000I0J150000D01*
G01*
X123804000Y-107927000D01*
G75*
G02*
X123954000Y-107777000I150000J0D01*
G01*
X125304000Y-107777000D01*
G75*
G02*
X125454000Y-107927000I0J-150000D01*
G01*
G37*
G36*
G01*
X125454000Y-109197000D02*
X125454000Y-109497000D01*
G75*
G02*
X125304000Y-109647000I-150000J0D01*
G01*
X123954000Y-109647000D01*
G75*
G02*
X123804000Y-109497000I0J150000D01*
G01*
X123804000Y-109197000D01*
G75*
G02*
X123954000Y-109047000I150000J0D01*
G01*
X125304000Y-109047000D01*
G75*
G02*
X125454000Y-109197000I0J-150000D01*
G01*
G37*
%TD*%
%TO.C,R8*%
G36*
G01*
X135185998Y-86713000D02*
X136086002Y-86713000D01*
G75*
G02*
X136336000Y-86962998I0J-249998D01*
G01*
X136336000Y-87488002D01*
G75*
G02*
X136086002Y-87738000I-249998J0D01*
G01*
X135185998Y-87738000D01*
G75*
G02*
X134936000Y-87488002I0J249998D01*
G01*
X134936000Y-86962998D01*
G75*
G02*
X135185998Y-86713000I249998J0D01*
G01*
G37*
G36*
G01*
X135185998Y-88538000D02*
X136086002Y-88538000D01*
G75*
G02*
X136336000Y-88787998I0J-249998D01*
G01*
X136336000Y-89313002D01*
G75*
G02*
X136086002Y-89563000I-249998J0D01*
G01*
X135185998Y-89563000D01*
G75*
G02*
X134936000Y-89313002I0J249998D01*
G01*
X134936000Y-88787998D01*
G75*
G02*
X135185998Y-88538000I249998J0D01*
G01*
G37*
%TD*%
%TO.C,C3*%
G36*
G01*
X136456000Y-119006600D02*
X136456000Y-119956600D01*
G75*
G02*
X136206000Y-120206600I-250000J0D01*
G01*
X135706000Y-120206600D01*
G75*
G02*
X135456000Y-119956600I0J250000D01*
G01*
X135456000Y-119006600D01*
G75*
G02*
X135706000Y-118756600I250000J0D01*
G01*
X136206000Y-118756600D01*
G75*
G02*
X136456000Y-119006600I0J-250000D01*
G01*
G37*
G36*
G01*
X138356000Y-119006600D02*
X138356000Y-119956600D01*
G75*
G02*
X138106000Y-120206600I-250000J0D01*
G01*
X137606000Y-120206600D01*
G75*
G02*
X137356000Y-119956600I0J250000D01*
G01*
X137356000Y-119006600D01*
G75*
G02*
X137606000Y-118756600I250000J0D01*
G01*
X138106000Y-118756600D01*
G75*
G02*
X138356000Y-119006600I0J-250000D01*
G01*
G37*
%TD*%
%TO.C,C5*%
G36*
G01*
X115933200Y-100632600D02*
X116883200Y-100632600D01*
G75*
G02*
X117133200Y-100882600I0J-250000D01*
G01*
X117133200Y-101382600D01*
G75*
G02*
X116883200Y-101632600I-250000J0D01*
G01*
X115933200Y-101632600D01*
G75*
G02*
X115683200Y-101382600I0J250000D01*
G01*
X115683200Y-100882600D01*
G75*
G02*
X115933200Y-100632600I250000J0D01*
G01*
G37*
G36*
G01*
X115933200Y-102532600D02*
X116883200Y-102532600D01*
G75*
G02*
X117133200Y-102782600I0J-250000D01*
G01*
X117133200Y-103282600D01*
G75*
G02*
X116883200Y-103532600I-250000J0D01*
G01*
X115933200Y-103532600D01*
G75*
G02*
X115683200Y-103282600I0J250000D01*
G01*
X115683200Y-102782600D01*
G75*
G02*
X115933200Y-102532600I250000J0D01*
G01*
G37*
%TD*%
%TO.C,R7*%
G36*
G01*
X135185998Y-91967000D02*
X136086002Y-91967000D01*
G75*
G02*
X136336000Y-92216998I0J-249998D01*
G01*
X136336000Y-92742002D01*
G75*
G02*
X136086002Y-92992000I-249998J0D01*
G01*
X135185998Y-92992000D01*
G75*
G02*
X134936000Y-92742002I0J249998D01*
G01*
X134936000Y-92216998D01*
G75*
G02*
X135185998Y-91967000I249998J0D01*
G01*
G37*
G36*
G01*
X135185998Y-90142000D02*
X136086002Y-90142000D01*
G75*
G02*
X136336000Y-90391998I0J-249998D01*
G01*
X136336000Y-90917002D01*
G75*
G02*
X136086002Y-91167000I-249998J0D01*
G01*
X135185998Y-91167000D01*
G75*
G02*
X134936000Y-90917002I0J249998D01*
G01*
X134936000Y-90391998D01*
G75*
G02*
X135185998Y-90142000I249998J0D01*
G01*
G37*
%TD*%
D12*
%TO.C,V1*%
X130042000Y-116069000D03*
X125482000Y-116069000D03*
D13*
X126237000Y-124044000D03*
X129287000Y-120694000D03*
X129287000Y-124044000D03*
X126237000Y-120694000D03*
%TD*%
%TO.C,C7*%
G36*
G01*
X118092200Y-100607200D02*
X119042200Y-100607200D01*
G75*
G02*
X119292200Y-100857200I0J-250000D01*
G01*
X119292200Y-101357200D01*
G75*
G02*
X119042200Y-101607200I-250000J0D01*
G01*
X118092200Y-101607200D01*
G75*
G02*
X117842200Y-101357200I0J250000D01*
G01*
X117842200Y-100857200D01*
G75*
G02*
X118092200Y-100607200I250000J0D01*
G01*
G37*
G36*
G01*
X118092200Y-102507200D02*
X119042200Y-102507200D01*
G75*
G02*
X119292200Y-102757200I0J-250000D01*
G01*
X119292200Y-103257200D01*
G75*
G02*
X119042200Y-103507200I-250000J0D01*
G01*
X118092200Y-103507200D01*
G75*
G02*
X117842200Y-103257200I0J250000D01*
G01*
X117842200Y-102757200D01*
G75*
G02*
X118092200Y-102507200I250000J0D01*
G01*
G37*
%TD*%
%TO.C,C8*%
G36*
G01*
X137243400Y-103792000D02*
X137243400Y-104742000D01*
G75*
G02*
X136993400Y-104992000I-250000J0D01*
G01*
X136493400Y-104992000D01*
G75*
G02*
X136243400Y-104742000I0J250000D01*
G01*
X136243400Y-103792000D01*
G75*
G02*
X136493400Y-103542000I250000J0D01*
G01*
X136993400Y-103542000D01*
G75*
G02*
X137243400Y-103792000I0J-250000D01*
G01*
G37*
G36*
G01*
X139143400Y-103792000D02*
X139143400Y-104742000D01*
G75*
G02*
X138893400Y-104992000I-250000J0D01*
G01*
X138393400Y-104992000D01*
G75*
G02*
X138143400Y-104742000I0J250000D01*
G01*
X138143400Y-103792000D01*
G75*
G02*
X138393400Y-103542000I250000J0D01*
G01*
X138893400Y-103542000D01*
G75*
G02*
X139143400Y-103792000I0J-250000D01*
G01*
G37*
%TD*%
M02*
