%TF.GenerationSoftware,KiCad,Pcbnew,(5.1.7)-1*%
%TF.CreationDate,2021-06-20T23:08:26+01:00*%
%TF.ProjectId,RcCtlHw,52634374-6c48-4772-9e6b-696361645f70,rev?*%
%TF.SameCoordinates,Original*%
%TF.FileFunction,Copper,L2,Bot*%
%TF.FilePolarity,Positive*%
%FSLAX46Y46*%
G04 Gerber Fmt 4.6, Leading zero omitted, Abs format (unit mm)*
G04 Created by KiCad (PCBNEW (5.1.7)-1) date 2021-06-20 23:08:26*
%MOMM*%
%LPD*%
G01*
G04 APERTURE LIST*
%TA.AperFunction,NonConductor*%
%ADD10C,0.500000*%
%TD*%
%TA.AperFunction,Profile*%
%ADD11C,0.050000*%
%TD*%
%TA.AperFunction,ComponentPad*%
%ADD12O,1.700000X1.700000*%
%TD*%
%TA.AperFunction,ComponentPad*%
%ADD13R,1.700000X1.700000*%
%TD*%
%TA.AperFunction,ComponentPad*%
%ADD14O,1.600000X1.200000*%
%TD*%
%TA.AperFunction,ComponentPad*%
%ADD15O,1.200000X1.600000*%
%TD*%
%TA.AperFunction,ComponentPad*%
%ADD16C,2.000000*%
%TD*%
%TA.AperFunction,ComponentPad*%
%ADD17O,1.800000X1.070000*%
%TD*%
%TA.AperFunction,ComponentPad*%
%ADD18R,1.800000X1.070000*%
%TD*%
%TA.AperFunction,SMDPad,CuDef*%
%ADD19R,1.400000X0.300000*%
%TD*%
%TA.AperFunction,ComponentPad*%
%ADD20O,2.200000X3.500000*%
%TD*%
%TA.AperFunction,ComponentPad*%
%ADD21O,2.500000X2.000000*%
%TD*%
%TA.AperFunction,SMDPad,CuDef*%
%ADD22R,0.650000X0.400000*%
%TD*%
%TA.AperFunction,ViaPad*%
%ADD23C,1.100000*%
%TD*%
%TA.AperFunction,Conductor*%
%ADD24C,0.250000*%
%TD*%
G04 APERTURE END LIST*
D10*
X129492238Y-124285285D02*
X129587476Y-124380523D01*
X129873190Y-124475761D01*
X130063666Y-124475761D01*
X130349380Y-124380523D01*
X130539857Y-124190047D01*
X130635095Y-123999571D01*
X130730333Y-123618619D01*
X130730333Y-123332904D01*
X130635095Y-122951952D01*
X130539857Y-122761476D01*
X130349380Y-122571000D01*
X130063666Y-122475761D01*
X129873190Y-122475761D01*
X129587476Y-122571000D01*
X129492238Y-122666238D01*
X128920809Y-123142428D02*
X128158904Y-123142428D01*
X128635095Y-122475761D02*
X128635095Y-124190047D01*
X128539857Y-124380523D01*
X128349380Y-124475761D01*
X128158904Y-124475761D01*
X127492238Y-124475761D02*
X127492238Y-123142428D01*
X127492238Y-123523380D02*
X127397000Y-123332904D01*
X127301761Y-123237666D01*
X127111285Y-123142428D01*
X126920809Y-123142428D01*
X125968428Y-124475761D02*
X126158904Y-124380523D01*
X126254142Y-124190047D01*
X126254142Y-122475761D01*
X128904952Y-121046761D02*
X129571619Y-120094380D01*
X130047809Y-121046761D02*
X130047809Y-119046761D01*
X129285904Y-119046761D01*
X129095428Y-119142000D01*
X129000190Y-119237238D01*
X128904952Y-119427714D01*
X128904952Y-119713428D01*
X129000190Y-119903904D01*
X129095428Y-119999142D01*
X129285904Y-120094380D01*
X130047809Y-120094380D01*
X126904952Y-120856285D02*
X127000190Y-120951523D01*
X127285904Y-121046761D01*
X127476380Y-121046761D01*
X127762095Y-120951523D01*
X127952571Y-120761047D01*
X128047809Y-120570571D01*
X128143047Y-120189619D01*
X128143047Y-119903904D01*
X128047809Y-119522952D01*
X127952571Y-119332476D01*
X127762095Y-119142000D01*
X127476380Y-119046761D01*
X127285904Y-119046761D01*
X127000190Y-119142000D01*
X126904952Y-119237238D01*
D11*
X114300000Y-84455000D02*
X140970000Y-84455000D01*
X140970000Y-84455000D02*
X140970000Y-84836000D01*
X114300000Y-84709000D02*
X114300000Y-84455000D01*
X140970000Y-126365000D02*
X140970000Y-119380000D01*
X114300000Y-126365000D02*
X140970000Y-126365000D01*
X114300000Y-119380000D02*
X114300000Y-126365000D01*
X114300000Y-119380000D02*
X114300000Y-84709000D01*
X140970000Y-84836000D02*
X140970000Y-119380000D01*
%TO.P,SW1,3*%
%TO.N,N/C*%
%TA.AperFunction,SMDPad,CuDef*%
G36*
G01*
X140970000Y-108547000D02*
X140970000Y-109547000D01*
G75*
G02*
X140470000Y-110047000I-500000J0D01*
G01*
X138470000Y-110047000D01*
G75*
G02*
X137970000Y-109547000I0J500000D01*
G01*
X137970000Y-108547000D01*
G75*
G02*
X138470000Y-108047000I500000J0D01*
G01*
X140470000Y-108047000D01*
G75*
G02*
X140970000Y-108547000I0J-500000D01*
G01*
G37*
%TD.AperFunction*%
%TO.P,SW1,2*%
%TO.N,+3V3*%
%TA.AperFunction,SMDPad,CuDef*%
G36*
G01*
X140970000Y-111547000D02*
X140970000Y-112547000D01*
G75*
G02*
X140470000Y-113047000I-500000J0D01*
G01*
X138470000Y-113047000D01*
G75*
G02*
X137970000Y-112547000I0J500000D01*
G01*
X137970000Y-111547000D01*
G75*
G02*
X138470000Y-111047000I500000J0D01*
G01*
X140470000Y-111047000D01*
G75*
G02*
X140970000Y-111547000I0J-500000D01*
G01*
G37*
%TD.AperFunction*%
%TO.P,SW1,1*%
%TO.N,Net-(C3-Pad1)*%
%TA.AperFunction,SMDPad,CuDef*%
G36*
G01*
X140970000Y-114547000D02*
X140970000Y-115547000D01*
G75*
G02*
X140470000Y-116047000I-500000J0D01*
G01*
X138470000Y-116047000D01*
G75*
G02*
X137970000Y-115547000I0J500000D01*
G01*
X137970000Y-114547000D01*
G75*
G02*
X138470000Y-114047000I500000J0D01*
G01*
X140470000Y-114047000D01*
G75*
G02*
X140970000Y-114547000I0J-500000D01*
G01*
G37*
%TD.AperFunction*%
%TD*%
D12*
%TO.P,J2,6*%
%TO.N,GND*%
X138684000Y-99187000D03*
%TO.P,J2,5*%
%TO.N,/RX*%
X138684000Y-96647000D03*
%TO.P,J2,4*%
%TO.N,/TX*%
X138684000Y-94107000D03*
%TO.P,J2,3*%
%TO.N,/Flash*%
X138684000Y-91567000D03*
%TO.P,J2,2*%
%TO.N,/RST*%
X138684000Y-89027000D03*
D13*
%TO.P,J2,1*%
%TO.N,+3V3*%
X138684000Y-86487000D03*
%TD*%
D14*
%TO.P,U4,6*%
%TO.N,GND*%
X136761000Y-112776000D03*
%TO.P,U4,5*%
%TO.N,Net-(C8-Pad1)*%
X136761000Y-110236000D03*
%TO.P,U4,4*%
%TO.N,+3V3*%
X136761000Y-107696000D03*
D15*
%TO.P,U4,3*%
%TO.N,GND*%
X130301000Y-101236000D03*
%TO.P,U4,2*%
%TO.N,Net-(C7-Pad1)*%
X127761000Y-101236000D03*
%TO.P,U4,1*%
%TO.N,+3V3*%
X125221000Y-101236000D03*
D16*
%TO.P,U4,*%
%TO.N,*%
X134511000Y-115986000D03*
X134511000Y-104486000D03*
X121011000Y-104486000D03*
X121011000Y-115986000D03*
%TD*%
D17*
%TO.P,D1,4*%
%TO.N,N/C*%
X118364000Y-107442000D03*
%TO.P,D1,3*%
%TO.N,Net-(D1-Pad3)*%
X118364000Y-108712000D03*
%TO.P,D1,2*%
%TO.N,Net-(D1-Pad2)*%
X118364000Y-109982000D03*
D18*
%TO.P,D1,1*%
%TO.N,Net-(D1-Pad1)*%
X118364000Y-111252000D03*
%TD*%
D19*
%TO.P,U3,1*%
%TO.N,GND*%
X122387000Y-98790000D03*
%TO.P,U3,2*%
%TO.N,N/C*%
X122387000Y-98290000D03*
%TO.P,U3,3*%
%TO.N,GND*%
X122387000Y-97790000D03*
%TO.P,U3,4*%
%TO.N,Net-(C7-Pad1)*%
X122387000Y-97290000D03*
%TO.P,U3,5*%
%TO.N,Net-(C8-Pad1)*%
X122387000Y-96790000D03*
%TO.P,U3,6*%
%TO.N,Net-(C9-Pad1)*%
X126787000Y-96790000D03*
%TO.P,U3,7*%
%TO.N,N/C*%
X126787000Y-97290000D03*
%TO.P,U3,8*%
%TO.N,+3V3*%
X126787000Y-97790000D03*
%TO.P,U3,9*%
%TO.N,/I2C_SDA*%
X126787000Y-98290000D03*
%TO.P,U3,10*%
%TO.N,/I2C_SCL*%
X126787000Y-98790000D03*
%TD*%
D20*
%TO.P,J1,6*%
%TO.N,Net-(J1-Pad6)*%
X116518000Y-116977000D03*
D21*
X119618000Y-117777000D03*
D20*
X116518000Y-124577000D03*
%TO.P,J1,5*%
%TO.N,GND*%
%TA.AperFunction,SMDPad,CuDef*%
G36*
G01*
X119930500Y-119452000D02*
X118605500Y-119452000D01*
G75*
G02*
X118518000Y-119364500I0J87500D01*
G01*
X118518000Y-119189500D01*
G75*
G02*
X118605500Y-119102000I87500J0D01*
G01*
X119930500Y-119102000D01*
G75*
G02*
X120018000Y-119189500I0J-87500D01*
G01*
X120018000Y-119364500D01*
G75*
G02*
X119930500Y-119452000I-87500J0D01*
G01*
G37*
%TD.AperFunction*%
%TO.P,J1,4*%
%TO.N,N/C*%
%TA.AperFunction,SMDPad,CuDef*%
G36*
G01*
X119930500Y-120202000D02*
X118605500Y-120202000D01*
G75*
G02*
X118518000Y-120114500I0J87500D01*
G01*
X118518000Y-119939500D01*
G75*
G02*
X118605500Y-119852000I87500J0D01*
G01*
X119930500Y-119852000D01*
G75*
G02*
X120018000Y-119939500I0J-87500D01*
G01*
X120018000Y-120114500D01*
G75*
G02*
X119930500Y-120202000I-87500J0D01*
G01*
G37*
%TD.AperFunction*%
%TO.P,J1,1*%
%TO.N,Net-(J1-Pad1)*%
%TA.AperFunction,SMDPad,CuDef*%
G36*
G01*
X119930500Y-122452000D02*
X118605500Y-122452000D01*
G75*
G02*
X118518000Y-122364500I0J87500D01*
G01*
X118518000Y-122189500D01*
G75*
G02*
X118605500Y-122102000I87500J0D01*
G01*
X119930500Y-122102000D01*
G75*
G02*
X120018000Y-122189500I0J-87500D01*
G01*
X120018000Y-122364500D01*
G75*
G02*
X119930500Y-122452000I-87500J0D01*
G01*
G37*
%TD.AperFunction*%
%TO.P,J1,2*%
%TO.N,N/C*%
%TA.AperFunction,SMDPad,CuDef*%
G36*
G01*
X119930500Y-121702000D02*
X118605500Y-121702000D01*
G75*
G02*
X118518000Y-121614500I0J87500D01*
G01*
X118518000Y-121439500D01*
G75*
G02*
X118605500Y-121352000I87500J0D01*
G01*
X119930500Y-121352000D01*
G75*
G02*
X120018000Y-121439500I0J-87500D01*
G01*
X120018000Y-121614500D01*
G75*
G02*
X119930500Y-121702000I-87500J0D01*
G01*
G37*
%TD.AperFunction*%
%TO.P,J1,3*%
%TA.AperFunction,SMDPad,CuDef*%
G36*
G01*
X119930500Y-120952000D02*
X118605500Y-120952000D01*
G75*
G02*
X118518000Y-120864500I0J87500D01*
G01*
X118518000Y-120689500D01*
G75*
G02*
X118605500Y-120602000I87500J0D01*
G01*
X119930500Y-120602000D01*
G75*
G02*
X120018000Y-120689500I0J-87500D01*
G01*
X120018000Y-120864500D01*
G75*
G02*
X119930500Y-120952000I-87500J0D01*
G01*
G37*
%TD.AperFunction*%
D21*
%TO.P,J1,6*%
%TO.N,Net-(J1-Pad6)*%
X119618000Y-123777000D03*
%TD*%
%TO.P,C6,2*%
%TO.N,GND*%
%TA.AperFunction,SMDPad,CuDef*%
G36*
G01*
X125915000Y-92362000D02*
X125915000Y-93312000D01*
G75*
G02*
X125665000Y-93562000I-250000J0D01*
G01*
X125165000Y-93562000D01*
G75*
G02*
X124915000Y-93312000I0J250000D01*
G01*
X124915000Y-92362000D01*
G75*
G02*
X125165000Y-92112000I250000J0D01*
G01*
X125665000Y-92112000D01*
G75*
G02*
X125915000Y-92362000I0J-250000D01*
G01*
G37*
%TD.AperFunction*%
%TO.P,C6,1*%
%TO.N,+3V3*%
%TA.AperFunction,SMDPad,CuDef*%
G36*
G01*
X127815000Y-92362000D02*
X127815000Y-93312000D01*
G75*
G02*
X127565000Y-93562000I-250000J0D01*
G01*
X127065000Y-93562000D01*
G75*
G02*
X126815000Y-93312000I0J250000D01*
G01*
X126815000Y-92362000D01*
G75*
G02*
X127065000Y-92112000I250000J0D01*
G01*
X127565000Y-92112000D01*
G75*
G02*
X127815000Y-92362000I0J-250000D01*
G01*
G37*
%TD.AperFunction*%
%TD*%
%TO.P,R10,1*%
%TO.N,Net-(C9-Pad1)*%
%TA.AperFunction,SMDPad,CuDef*%
G36*
G01*
X126901000Y-94418999D02*
X126901000Y-95319001D01*
G75*
G02*
X126651001Y-95569000I-249999J0D01*
G01*
X126125999Y-95569000D01*
G75*
G02*
X125876000Y-95319001I0J249999D01*
G01*
X125876000Y-94418999D01*
G75*
G02*
X126125999Y-94169000I249999J0D01*
G01*
X126651001Y-94169000D01*
G75*
G02*
X126901000Y-94418999I0J-249999D01*
G01*
G37*
%TD.AperFunction*%
%TO.P,R10,2*%
%TO.N,GND*%
%TA.AperFunction,SMDPad,CuDef*%
G36*
G01*
X125076000Y-94418999D02*
X125076000Y-95319001D01*
G75*
G02*
X124826001Y-95569000I-249999J0D01*
G01*
X124300999Y-95569000D01*
G75*
G02*
X124051000Y-95319001I0J249999D01*
G01*
X124051000Y-94418999D01*
G75*
G02*
X124300999Y-94169000I249999J0D01*
G01*
X124826001Y-94169000D01*
G75*
G02*
X125076000Y-94418999I0J-249999D01*
G01*
G37*
%TD.AperFunction*%
%TD*%
D22*
%TO.P,V2,1*%
%TO.N,+3V3*%
X129352000Y-98059000D03*
%TO.P,V2,3*%
%TO.N,Net-(R11-Pad2)*%
X129352000Y-96759000D03*
%TO.P,V2,2*%
%TO.N,GND*%
X129352000Y-97409000D03*
%TO.P,V2,4*%
%TO.N,N/C*%
X131252000Y-96759000D03*
%TO.P,V2,5*%
%TO.N,/2V8_BackLight*%
X131252000Y-98059000D03*
%TD*%
%TO.P,J3,2*%
%TO.N,GND*%
%TA.AperFunction,SMDPad,CuDef*%
G36*
G01*
X134516000Y-87165000D02*
X133866000Y-87165000D01*
G75*
G02*
X133791000Y-87090000I0J75000D01*
G01*
X133791000Y-86940000D01*
G75*
G02*
X133866000Y-86865000I75000J0D01*
G01*
X134516000Y-86865000D01*
G75*
G02*
X134591000Y-86940000I0J-75000D01*
G01*
X134591000Y-87090000D01*
G75*
G02*
X134516000Y-87165000I-75000J0D01*
G01*
G37*
%TD.AperFunction*%
%TO.P,J3,3*%
%TO.N,/TFT_RST*%
%TA.AperFunction,SMDPad,CuDef*%
G36*
G01*
X134516000Y-87665000D02*
X133866000Y-87665000D01*
G75*
G02*
X133791000Y-87590000I0J75000D01*
G01*
X133791000Y-87440000D01*
G75*
G02*
X133866000Y-87365000I75000J0D01*
G01*
X134516000Y-87365000D01*
G75*
G02*
X134591000Y-87440000I0J-75000D01*
G01*
X134591000Y-87590000D01*
G75*
G02*
X134516000Y-87665000I-75000J0D01*
G01*
G37*
%TD.AperFunction*%
%TO.P,J3,4*%
%TO.N,/TFT_RS*%
%TA.AperFunction,SMDPad,CuDef*%
G36*
G01*
X134516000Y-88165000D02*
X133866000Y-88165000D01*
G75*
G02*
X133791000Y-88090000I0J75000D01*
G01*
X133791000Y-87940000D01*
G75*
G02*
X133866000Y-87865000I75000J0D01*
G01*
X134516000Y-87865000D01*
G75*
G02*
X134591000Y-87940000I0J-75000D01*
G01*
X134591000Y-88090000D01*
G75*
G02*
X134516000Y-88165000I-75000J0D01*
G01*
G37*
%TD.AperFunction*%
%TO.P,J3,5*%
%TO.N,/TFT_SDA*%
%TA.AperFunction,SMDPad,CuDef*%
G36*
G01*
X134516000Y-88665000D02*
X133866000Y-88665000D01*
G75*
G02*
X133791000Y-88590000I0J75000D01*
G01*
X133791000Y-88440000D01*
G75*
G02*
X133866000Y-88365000I75000J0D01*
G01*
X134516000Y-88365000D01*
G75*
G02*
X134591000Y-88440000I0J-75000D01*
G01*
X134591000Y-88590000D01*
G75*
G02*
X134516000Y-88665000I-75000J0D01*
G01*
G37*
%TD.AperFunction*%
%TO.P,J3,6*%
%TO.N,/TFT_SCL*%
%TA.AperFunction,SMDPad,CuDef*%
G36*
G01*
X134516000Y-89165000D02*
X133866000Y-89165000D01*
G75*
G02*
X133791000Y-89090000I0J75000D01*
G01*
X133791000Y-88940000D01*
G75*
G02*
X133866000Y-88865000I75000J0D01*
G01*
X134516000Y-88865000D01*
G75*
G02*
X134591000Y-88940000I0J-75000D01*
G01*
X134591000Y-89090000D01*
G75*
G02*
X134516000Y-89165000I-75000J0D01*
G01*
G37*
%TD.AperFunction*%
%TO.P,J3,7*%
%TO.N,+3V3*%
%TA.AperFunction,SMDPad,CuDef*%
G36*
G01*
X134516000Y-89665000D02*
X133866000Y-89665000D01*
G75*
G02*
X133791000Y-89590000I0J75000D01*
G01*
X133791000Y-89440000D01*
G75*
G02*
X133866000Y-89365000I75000J0D01*
G01*
X134516000Y-89365000D01*
G75*
G02*
X134591000Y-89440000I0J-75000D01*
G01*
X134591000Y-89590000D01*
G75*
G02*
X134516000Y-89665000I-75000J0D01*
G01*
G37*
%TD.AperFunction*%
%TO.P,J3,8*%
%TO.N,GND*%
%TA.AperFunction,SMDPad,CuDef*%
G36*
G01*
X134516000Y-90165000D02*
X133866000Y-90165000D01*
G75*
G02*
X133791000Y-90090000I0J75000D01*
G01*
X133791000Y-89940000D01*
G75*
G02*
X133866000Y-89865000I75000J0D01*
G01*
X134516000Y-89865000D01*
G75*
G02*
X134591000Y-89940000I0J-75000D01*
G01*
X134591000Y-90090000D01*
G75*
G02*
X134516000Y-90165000I-75000J0D01*
G01*
G37*
%TD.AperFunction*%
%TO.P,J3,1*%
%TO.N,/2V8_BackLight*%
%TA.AperFunction,SMDPad,CuDef*%
G36*
G01*
X134516000Y-86665000D02*
X133866000Y-86665000D01*
G75*
G02*
X133791000Y-86590000I0J75000D01*
G01*
X133791000Y-86440000D01*
G75*
G02*
X133866000Y-86365000I75000J0D01*
G01*
X134516000Y-86365000D01*
G75*
G02*
X134591000Y-86440000I0J-75000D01*
G01*
X134591000Y-86590000D01*
G75*
G02*
X134516000Y-86665000I-75000J0D01*
G01*
G37*
%TD.AperFunction*%
%TO.P,J3,*%
%TO.N,*%
%TA.AperFunction,SMDPad,CuDef*%
G36*
G01*
X131866000Y-91315000D02*
X131316000Y-91315000D01*
G75*
G02*
X131191000Y-91190000I0J125000D01*
G01*
X131191000Y-90940000D01*
G75*
G02*
X131316000Y-90815000I125000J0D01*
G01*
X131866000Y-90815000D01*
G75*
G02*
X131991000Y-90940000I0J-125000D01*
G01*
X131991000Y-91190000D01*
G75*
G02*
X131866000Y-91315000I-125000J0D01*
G01*
G37*
%TD.AperFunction*%
%TA.AperFunction,SMDPad,CuDef*%
G36*
G01*
X131866000Y-85715000D02*
X131316000Y-85715000D01*
G75*
G02*
X131191000Y-85590000I0J125000D01*
G01*
X131191000Y-85340000D01*
G75*
G02*
X131316000Y-85215000I125000J0D01*
G01*
X131866000Y-85215000D01*
G75*
G02*
X131991000Y-85340000I0J-125000D01*
G01*
X131991000Y-85590000D01*
G75*
G02*
X131866000Y-85715000I-125000J0D01*
G01*
G37*
%TD.AperFunction*%
%TD*%
D13*
%TO.P,BT1,1*%
%TO.N,+BATT*%
X133731000Y-124079000D03*
D12*
%TO.P,BT1,2*%
%TO.N,GND*%
X136271000Y-124079000D03*
%TD*%
%TO.P,R9,2*%
%TO.N,Net-(C9-Pad1)*%
%TA.AperFunction,SMDPad,CuDef*%
G36*
G01*
X122320000Y-95319001D02*
X122320000Y-94418999D01*
G75*
G02*
X122569999Y-94169000I249999J0D01*
G01*
X123095001Y-94169000D01*
G75*
G02*
X123345000Y-94418999I0J-249999D01*
G01*
X123345000Y-95319001D01*
G75*
G02*
X123095001Y-95569000I-249999J0D01*
G01*
X122569999Y-95569000D01*
G75*
G02*
X122320000Y-95319001I0J249999D01*
G01*
G37*
%TD.AperFunction*%
%TO.P,R9,1*%
%TO.N,+BATT*%
%TA.AperFunction,SMDPad,CuDef*%
G36*
G01*
X120495000Y-95319001D02*
X120495000Y-94418999D01*
G75*
G02*
X120744999Y-94169000I249999J0D01*
G01*
X121270001Y-94169000D01*
G75*
G02*
X121520000Y-94418999I0J-249999D01*
G01*
X121520000Y-95319001D01*
G75*
G02*
X121270001Y-95569000I-249999J0D01*
G01*
X120744999Y-95569000D01*
G75*
G02*
X120495000Y-95319001I0J249999D01*
G01*
G37*
%TD.AperFunction*%
%TD*%
%TO.P,R11,1*%
%TO.N,+3V3*%
%TA.AperFunction,SMDPad,CuDef*%
G36*
G01*
X127607000Y-95319001D02*
X127607000Y-94418999D01*
G75*
G02*
X127856999Y-94169000I249999J0D01*
G01*
X128382001Y-94169000D01*
G75*
G02*
X128632000Y-94418999I0J-249999D01*
G01*
X128632000Y-95319001D01*
G75*
G02*
X128382001Y-95569000I-249999J0D01*
G01*
X127856999Y-95569000D01*
G75*
G02*
X127607000Y-95319001I0J249999D01*
G01*
G37*
%TD.AperFunction*%
%TO.P,R11,2*%
%TO.N,Net-(R11-Pad2)*%
%TA.AperFunction,SMDPad,CuDef*%
G36*
G01*
X129432000Y-95319001D02*
X129432000Y-94418999D01*
G75*
G02*
X129681999Y-94169000I249999J0D01*
G01*
X130207001Y-94169000D01*
G75*
G02*
X130457000Y-94418999I0J-249999D01*
G01*
X130457000Y-95319001D01*
G75*
G02*
X130207001Y-95569000I-249999J0D01*
G01*
X129681999Y-95569000D01*
G75*
G02*
X129432000Y-95319001I0J249999D01*
G01*
G37*
%TD.AperFunction*%
%TD*%
%TO.P,C9,1*%
%TO.N,Net-(C9-Pad1)*%
%TA.AperFunction,SMDPad,CuDef*%
G36*
G01*
X121409800Y-93312000D02*
X121409800Y-92362000D01*
G75*
G02*
X121659800Y-92112000I250000J0D01*
G01*
X122159800Y-92112000D01*
G75*
G02*
X122409800Y-92362000I0J-250000D01*
G01*
X122409800Y-93312000D01*
G75*
G02*
X122159800Y-93562000I-250000J0D01*
G01*
X121659800Y-93562000D01*
G75*
G02*
X121409800Y-93312000I0J250000D01*
G01*
G37*
%TD.AperFunction*%
%TO.P,C9,2*%
%TO.N,GND*%
%TA.AperFunction,SMDPad,CuDef*%
G36*
G01*
X123309800Y-93312000D02*
X123309800Y-92362000D01*
G75*
G02*
X123559800Y-92112000I250000J0D01*
G01*
X124059800Y-92112000D01*
G75*
G02*
X124309800Y-92362000I0J-250000D01*
G01*
X124309800Y-93312000D01*
G75*
G02*
X124059800Y-93562000I-250000J0D01*
G01*
X123559800Y-93562000D01*
G75*
G02*
X123309800Y-93312000I0J250000D01*
G01*
G37*
%TD.AperFunction*%
%TD*%
D23*
%TO.N,GND*%
X136525000Y-117475000D03*
X133223000Y-98933000D03*
X121412000Y-101600000D03*
%TO.N,Net-(C3-Pad1)*%
X138810998Y-117474998D03*
%TO.N,+3V3*%
X117094000Y-98297998D03*
X139877800Y-106908600D03*
%TO.N,Net-(J1-Pad1)*%
X122555000Y-122301002D03*
%TO.N,/TFT_RST*%
X136144000Y-85344000D03*
%TO.N,/TFT_RS*%
X133223002Y-96393000D03*
%TO.N,+BATT*%
X133731000Y-121158000D03*
X115570000Y-105029000D03*
X116459000Y-91313000D03*
%TO.N,/I2C_SCL*%
X134493637Y-101103411D03*
%TO.N,/I2C_SDA*%
X136271000Y-98996500D03*
%TO.N,/TFT_SDA*%
X117094000Y-95250000D03*
%TO.N,/TFT_SCL*%
X116459000Y-89153988D03*
%TO.N,Net-(C7-Pad1)*%
X119380000Y-99695000D03*
%TO.N,Net-(C8-Pad1)*%
X117475000Y-105029000D03*
X117094004Y-92837000D03*
X138531600Y-105892600D03*
%TD*%
D24*
%TO.N,GND*%
X138430000Y-99441000D02*
X138684000Y-99187000D01*
X133223000Y-98933000D02*
X132080000Y-98933000D01*
X135975001Y-118024999D02*
X136525000Y-117475000D01*
X123656001Y-118024999D02*
X135975001Y-118024999D01*
X122404000Y-119277000D02*
X123656001Y-118024999D01*
X119268000Y-119277000D02*
X122404000Y-119277000D01*
X123825000Y-96520000D02*
X123825000Y-97504000D01*
X123809000Y-98790000D02*
X123825000Y-98806000D01*
X122387000Y-98790000D02*
X123809000Y-98790000D01*
X122428000Y-97790000D02*
X123825000Y-97790000D01*
X122387000Y-97790000D02*
X122428000Y-97790000D01*
X123825000Y-97790000D02*
X123825000Y-98806000D01*
X123825000Y-97504000D02*
X123825000Y-97790000D01*
X130937000Y-98933000D02*
X130429000Y-98425000D01*
X133223000Y-98933000D02*
X130937000Y-98933000D01*
X129352000Y-97409000D02*
X130429000Y-97409000D01*
X130429000Y-98425000D02*
X130429000Y-97409000D01*
X130429000Y-96266000D02*
X130429000Y-96139000D01*
X130429000Y-97409000D02*
X130429000Y-96266000D01*
X130429000Y-96139000D02*
X130810000Y-95758000D01*
X130810000Y-95758000D02*
X131572000Y-95758000D01*
X121412000Y-101600000D02*
X122682000Y-101600000D01*
X123825000Y-100457000D02*
X123825000Y-98806000D01*
X122682000Y-101600000D02*
X123825000Y-100457000D01*
X124563500Y-95781500D02*
X123825000Y-96520000D01*
X124563500Y-94869000D02*
X124563500Y-95781500D01*
X125364200Y-92887800D02*
X125415000Y-92837000D01*
X124563500Y-92962100D02*
X124637800Y-92887800D01*
X124563500Y-94869000D02*
X124563500Y-92962100D01*
X124637800Y-92887800D02*
X125364200Y-92887800D01*
X123835200Y-92887800D02*
X124637800Y-92887800D01*
X132701002Y-97395002D02*
X132334000Y-97028000D01*
X134760998Y-97395002D02*
X132701002Y-97395002D01*
X136271000Y-87515700D02*
X136271000Y-95885000D01*
X134283990Y-87039990D02*
X135795290Y-87039990D01*
X134259000Y-87015000D02*
X134283990Y-87039990D01*
X136271000Y-95885000D02*
X134760998Y-97395002D01*
X135795290Y-87039990D02*
X136271000Y-87515700D01*
X134191000Y-87015000D02*
X134259000Y-87015000D01*
X134191000Y-90015000D02*
X133365300Y-90015000D01*
X133365300Y-90015000D02*
X133007100Y-90373200D01*
X133007100Y-90373200D02*
X133007100Y-93167200D01*
X132334000Y-93840300D02*
X132899150Y-93275150D01*
X133007100Y-93167200D02*
X132899150Y-93275150D01*
X132334000Y-97028000D02*
X132334000Y-96367600D01*
X132295900Y-95758000D02*
X132334000Y-95796100D01*
X131572000Y-95758000D02*
X132295900Y-95758000D01*
X132334000Y-95796100D02*
X132334000Y-93840300D01*
X132334000Y-96367600D02*
X132334000Y-95796100D01*
%TO.N,Net-(C3-Pad1)*%
X139470000Y-116815996D02*
X138810998Y-117474998D01*
X139470000Y-115047000D02*
X139470000Y-116815996D01*
%TO.N,+3V3*%
X139446000Y-112404000D02*
X139470000Y-112380000D01*
X128119500Y-93641500D02*
X127315000Y-92837000D01*
X128119500Y-94869000D02*
X128119500Y-93641500D01*
X131699000Y-90297000D02*
X132481000Y-89515000D01*
X134191000Y-89515000D02*
X132481000Y-89515000D01*
X127315000Y-90358000D02*
X127254000Y-90297000D01*
X127315000Y-92837000D02*
X127315000Y-90358000D01*
X127254000Y-90297000D02*
X131699000Y-90297000D01*
X116191002Y-94093002D02*
X117842002Y-94093002D01*
X117094000Y-97409000D02*
X117094000Y-98297998D01*
X115570000Y-91313000D02*
X115570000Y-93472000D01*
X115583999Y-91299001D02*
X115570000Y-91313000D01*
X118427500Y-96075500D02*
X117094000Y-97409000D01*
X117842002Y-94093002D02*
X118427500Y-94678500D01*
X115583999Y-90791001D02*
X115583999Y-91299001D01*
X118427500Y-94678500D02*
X118427500Y-96075500D01*
X116078000Y-90297000D02*
X115583999Y-90791001D01*
X115570000Y-93472000D02*
X116191002Y-94093002D01*
X127254000Y-90297000D02*
X116078000Y-90297000D01*
X128143000Y-97790000D02*
X126787000Y-97790000D01*
X128223000Y-97790000D02*
X128143000Y-97790000D01*
X128223000Y-94972500D02*
X128119500Y-94869000D01*
X128223000Y-97790000D02*
X128223000Y-94972500D01*
X129352000Y-98059000D02*
X128793000Y-98059000D01*
X128524000Y-97790000D02*
X128223000Y-97790000D01*
X128793000Y-98059000D02*
X128524000Y-97790000D01*
X138023600Y-106908600D02*
X139877800Y-106908600D01*
X135991600Y-106426000D02*
X137541000Y-106426000D01*
X134670800Y-107746800D02*
X135991600Y-106426000D01*
X134670800Y-110286800D02*
X134670800Y-107746800D01*
X135890000Y-111506000D02*
X134670800Y-110286800D01*
X138929000Y-111506000D02*
X135890000Y-111506000D01*
X137541000Y-106426000D02*
X138023600Y-106908600D01*
X139470000Y-112047000D02*
X138929000Y-111506000D01*
X139877800Y-103251000D02*
X139877800Y-106908600D01*
X133604000Y-102616000D02*
X139242800Y-102616000D01*
X132588000Y-103632000D02*
X133604000Y-102616000D01*
X139242800Y-102616000D02*
X139877800Y-103251000D01*
X122809000Y-102616000D02*
X123825000Y-103632000D01*
X117856000Y-102616000D02*
X122809000Y-102616000D01*
X123825000Y-103632000D02*
X132588000Y-103632000D01*
X117094000Y-101854000D02*
X117856000Y-102616000D01*
X117094000Y-98297998D02*
X117094000Y-101854000D01*
%TO.N,Net-(J1-Pad1)*%
X119268000Y-122277000D02*
X122530998Y-122277000D01*
X122530998Y-122277000D02*
X122555000Y-122301002D01*
%TO.N,/TFT_RST*%
X132842000Y-85344000D02*
X136144000Y-85344000D01*
X132588000Y-85598000D02*
X132842000Y-85344000D01*
X132588000Y-87249000D02*
X132588000Y-85598000D01*
X132854000Y-87515000D02*
X132588000Y-87249000D01*
X134191000Y-87515000D02*
X132854000Y-87515000D01*
%TO.N,/TFT_RS*%
X134493000Y-96393000D02*
X135636000Y-95250000D01*
X133223002Y-96393000D02*
X134493000Y-96393000D01*
X135132000Y-88015000D02*
X135636000Y-88519000D01*
X134191000Y-88015000D02*
X135132000Y-88015000D01*
X135636000Y-95250000D02*
X135636000Y-88519000D01*
%TO.N,/2V8_BackLight*%
X136426000Y-86515000D02*
X134191000Y-86515000D01*
X136906000Y-86995000D02*
X136426000Y-86515000D01*
X136906000Y-96520000D02*
X136906000Y-86995000D01*
X135509000Y-97917000D02*
X136906000Y-96520000D01*
X132588000Y-97917000D02*
X135509000Y-97917000D01*
X132446000Y-98059000D02*
X132588000Y-97917000D01*
X131252000Y-98059000D02*
X132446000Y-98059000D01*
%TO.N,+BATT*%
X137668000Y-116586000D02*
X134112000Y-113030000D01*
X137668000Y-119761000D02*
X137668000Y-116586000D01*
X136271000Y-121158000D02*
X137668000Y-119761000D01*
X133731000Y-121158000D02*
X136271000Y-121158000D01*
X115570000Y-112268000D02*
X116332000Y-113030000D01*
X115570000Y-105029000D02*
X115570000Y-112268000D01*
X134112000Y-113030000D02*
X116332000Y-113030000D01*
X116459000Y-91313000D02*
X120269000Y-91313000D01*
X121007500Y-92051500D02*
X121007500Y-94869000D01*
X120269000Y-91313000D02*
X121007500Y-92051500D01*
%TO.N,Net-(R11-Pad2)*%
X129944500Y-94869000D02*
X129944500Y-95480500D01*
X129352000Y-96073000D02*
X129352000Y-96759000D01*
X129944500Y-95480500D02*
X129352000Y-96073000D01*
%TO.N,/I2C_SCL*%
X126787000Y-99736000D02*
X126787000Y-99019000D01*
X126787000Y-99019000D02*
X126787000Y-98790000D01*
X134493637Y-101103411D02*
X132957589Y-101103411D01*
X132957589Y-101103411D02*
X131064000Y-102997000D01*
X131064000Y-102997000D02*
X127127000Y-102997000D01*
X127127000Y-102997000D02*
X126492000Y-102362000D01*
X126492000Y-100031000D02*
X126787000Y-99736000D01*
X126492000Y-102362000D02*
X126492000Y-100031000D01*
%TO.N,/I2C_SDA*%
X135403501Y-99863999D02*
X136271000Y-98996500D01*
X129421801Y-99863999D02*
X135403501Y-99863999D01*
X127847802Y-98290000D02*
X129421801Y-99863999D01*
X126787000Y-98290000D02*
X127847802Y-98290000D01*
%TO.N,/TFT_SDA*%
X132457000Y-88515000D02*
X134191000Y-88515000D01*
X131495800Y-87553800D02*
X132457000Y-88515000D01*
X115062000Y-88315800D02*
X115824000Y-87553800D01*
X115062000Y-94615000D02*
X115062000Y-88315800D01*
X115697000Y-95250000D02*
X115062000Y-94615000D01*
X115824000Y-87553800D02*
X131495800Y-87553800D01*
X117094000Y-95250000D02*
X115697000Y-95250000D01*
%TO.N,/TFT_SCL*%
X134191000Y-89015000D02*
X116597988Y-89015000D01*
X116597988Y-89015000D02*
X116459000Y-89153988D01*
%TO.N,Net-(C7-Pad1)*%
X120134000Y-97290000D02*
X119380000Y-98044000D01*
X122387000Y-97290000D02*
X120134000Y-97290000D01*
X119380000Y-98044000D02*
X119380000Y-99695000D01*
%TO.N,Net-(C8-Pad1)*%
X117094004Y-92837000D02*
X118872000Y-92837000D01*
X118872000Y-92837000D02*
X119380000Y-93345000D01*
X119380000Y-93345000D02*
X119380000Y-96012000D01*
X120158000Y-96790000D02*
X122387000Y-96790000D01*
X119380000Y-96012000D02*
X120158000Y-96790000D01*
X120650000Y-107188000D02*
X134099300Y-107188000D01*
X118491000Y-105029000D02*
X120650000Y-107188000D01*
X117475000Y-105029000D02*
X118491000Y-105029000D01*
X138087100Y-105448100D02*
X138131550Y-105492550D01*
X135839200Y-105448100D02*
X138087100Y-105448100D01*
X138131550Y-105492550D02*
X138531600Y-105892600D01*
X134099300Y-107188000D02*
X135839200Y-105448100D01*
%TO.N,Net-(C9-Pad1)*%
X126787000Y-96790000D02*
X126787000Y-96307000D01*
X126388500Y-95908500D02*
X126388500Y-94869000D01*
X126787000Y-96307000D02*
X126388500Y-95908500D01*
X126388500Y-91797500D02*
X126388500Y-94869000D01*
X125904000Y-91313000D02*
X126388500Y-91797500D01*
X123444000Y-91313000D02*
X125904000Y-91313000D01*
X122832500Y-91924500D02*
X123444000Y-91313000D01*
X121909800Y-92837000D02*
X122758200Y-92837000D01*
X122832500Y-92762700D02*
X122832500Y-91924500D01*
X122758200Y-92837000D02*
X122832500Y-92762700D01*
X122832500Y-94869000D02*
X122832500Y-92762700D01*
%TD*%
M02*
